{"glyphs":{"0":{"ha":1151,"x_min":0,"x_max":0,"o":"m 132 440 b 576 -8 132 152 332 -8 b 1019 440 819 -8 1019 152 b 576 903 1019 745 809 903 b 132 440 342 903 132 745 z m 167 440 b 576 872 167 713 347 872 b 985 440 804 872 985 713 b 576 23 985 178 806 23 b 167 440 346 23 167 178 z "},"1":{"ha":564,"x_min":0,"x_max":0,"o":"m 322 867 l 322 0 l 356 0 l 356 897 l 314 897 l 113 850 l 119 820 z "},"2":{"ha":940,"x_min":0,"x_max":0,"o":"m 129 107 l 129 0 l 841 0 l 841 31 l 163 31 l 163 88 b 400 379 163 267 202 317 l 600 442 b 817 683 786 501 817 587 b 534 905 817 825 713 905 b 187 838 386 905 265 868 l 198 808 b 533 874 288 842 399 874 b 783 683 690 874 783 805 b 586 473 783 592 753 526 l 386 410 b 129 107 179 344 129 282 z "},"3":{"ha":925,"x_min":0,"x_max":0,"o":"m 435 -8 b 814 245 644 -8 814 66 b 608 476 814 358 760 451 b 772 694 729 523 772 606 b 458 904 772 842 646 904 b 115 836 313 904 198 869 l 127 808 b 458 873 210 842 328 873 b 738 695 636 873 738 809 b 491 485 738 606 661 485 l 269 485 l 269 454 l 494 454 b 781 244 701 454 781 376 b 435 24 781 106 648 24 b 90 79 288 24 170 51 l 78 49 b 435 -8 150 23 271 -8 z "},"4":{"ha":925,"x_min":0,"x_max":0,"o":"m 676 198 l 676 0 l 710 0 l 710 198 l 886 198 l 886 227 l 710 227 l 710 895 l 664 895 l 69 238 l 69 198 z m 106 227 l 676 860 l 676 227 z "},"5":{"ha":951,"x_min":0,"x_max":0,"o":"m 468 -7 b 826 281 672 -7 826 71 b 503 560 826 481 697 560 b 230 510 383 560 288 532 l 247 865 l 769 865 l 769 895 l 215 895 l 194 494 l 220 474 b 501 529 296 503 387 529 b 792 281 683 529 792 461 b 468 24 792 85 640 24 b 163 76 331 24 231 51 l 151 44 b 468 -7 219 19 326 -7 z "},"6":{"ha":1018,"x_min":0,"x_max":0,"o":"m 538 -8 b 917 288 849 -8 917 172 b 578 585 917 501 743 585 b 169 362 377 585 242 483 b 165 434 166 387 165 411 b 576 873 165 696 317 873 b 833 823 683 873 757 854 l 846 852 b 574 904 778 879 698 904 b 132 437 288 904 132 702 b 538 -8 132 128 317 -8 z m 176 313 b 578 554 259 467 401 554 b 883 288 769 554 883 447 b 538 23 883 78 692 23 b 176 313 372 23 213 117 z "},"7":{"ha":764,"x_min":0,"x_max":0,"o":"m 192 20 l 223 2 l 722 858 l 722 895 l 51 895 l 51 865 l 688 865 z "},"8":{"ha":991,"x_min":0,"x_max":0,"o":"m 108 224 b 497 -8 108 51 282 -8 b 885 224 711 -8 885 51 b 634 458 885 355 783 431 b 840 669 743 491 840 539 b 497 905 840 817 676 905 b 153 669 317 905 153 817 b 359 458 153 539 250 491 b 108 224 210 431 108 355 z m 142 224 b 497 440 142 361 274 440 b 851 224 719 440 851 361 b 497 23 851 80 706 23 b 142 224 287 23 142 80 z m 187 669 b 497 875 187 790 319 875 b 806 669 674 875 806 790 b 497 470 806 532 649 470 b 187 669 344 470 187 532 z "},"9":{"ha":1037,"x_min":0,"x_max":0,"o":"m 473 -8 b 908 468 755 -8 908 181 b 495 904 908 769 722 904 b 118 603 324 904 118 817 b 441 335 118 410 279 335 b 874 518 640 335 779 417 b 876 476 875 504 876 490 b 473 24 876 219 746 24 b 184 83 340 24 252 50 l 170 51 b 473 -8 232 24 320 -8 z m 150 603 b 494 872 150 801 341 872 b 869 557 694 872 835 765 b 441 366 733 412 595 366 b 150 603 301 366 150 429 z "}," ":{"ha":410,"x_min":0,"x_max":0,"o":""},"A":{"ha":1088,"x_min":0,"x_max":0,"o":"m 54 15 l 83 0 l 207 233 l 881 233 l 1003 0 l 1034 15 l 566 895 l 519 895 z m 224 263 l 542 868 l 864 263 z "},"À":{"ha":1088,"x_min":0,"x_max":0,"o":"m 54 15 l 83 0 l 207 233 l 881 233 l 1003 0 l 1034 15 l 566 895 l 519 895 z m 224 263 l 542 868 l 864 263 z m 294 1144 l 555 1008 l 569 1033 l 311 1174 z "},"Á":{"ha":1088,"x_min":0,"x_max":0,"o":"m 54 15 l 83 0 l 207 233 l 881 233 l 1003 0 l 1034 15 l 566 895 l 519 895 z m 224 263 l 542 868 l 864 263 z m 513 1035 l 526 1009 l 786 1140 l 771 1171 z "},"Â":{"ha":1088,"x_min":0,"x_max":0,"o":"m 54 15 l 83 0 l 207 233 l 881 233 l 1003 0 l 1034 15 l 566 895 l 519 895 z m 224 263 l 542 868 l 864 263 z m 328 1031 l 349 1010 l 542 1188 l 735 1010 l 756 1031 l 563 1212 l 523 1212 z "},"Ã":{"ha":1088,"x_min":0,"x_max":0,"o":"m 54 15 l 83 0 l 207 233 l 881 233 l 1003 0 l 1034 15 l 566 895 l 519 895 z m 224 263 l 542 868 l 864 263 z m 317 1041 l 343 1025 b 436 1081 367 1064 401 1081 b 545 1044 476 1081 510 1061 b 656 1012 577 1028 618 1012 b 772 1078 697 1012 741 1030 l 746 1095 b 657 1044 722 1058 692 1044 b 546 1078 613 1044 580 1063 b 439 1111 513 1094 478 1111 b 317 1041 394 1111 346 1092 z "},"Ä":{"ha":1088,"x_min":0,"x_max":0,"o":"m 54 15 l 83 0 l 207 233 l 881 233 l 1003 0 l 1034 15 l 566 895 l 519 895 z m 224 263 l 542 868 l 864 263 z m 435 1028 l 468 1028 l 468 1113 l 435 1113 z m 611 1028 l 644 1028 l 644 1113 l 611 1113 z "},"Å":{"ha":1088,"x_min":0,"x_max":0,"o":"m 54 15 l 83 0 l 207 233 l 881 233 l 1003 0 l 1034 15 l 566 895 l 519 895 z m 224 263 l 542 868 l 864 263 z m 420 1105 b 544 997 420 1043 466 997 b 668 1105 618 997 668 1043 b 544 1212 668 1166 617 1212 b 420 1105 471 1212 420 1166 z m 451 1104 b 544 1185 451 1149 487 1185 b 638 1104 602 1185 638 1149 b 544 1024 638 1058 601 1024 b 451 1104 487 1024 451 1058 z "},"Ā":{"ha":1088,"x_min":0,"x_max":0,"o":"m 54 15 l 83 0 l 207 233 l 881 233 l 1003 0 l 1034 15 l 566 895 l 519 895 z m 224 263 l 542 868 l 864 263 z m 365 1028 l 718 1028 l 718 1058 l 365 1058 z "},"Ă":{"ha":1088,"x_min":0,"x_max":0,"o":"m 54 15 l 83 0 l 207 233 l 881 233 l 1003 0 l 1034 15 l 566 895 l 519 895 z m 224 263 l 542 868 l 864 263 z m 361 1194 b 540 1009 366 1101 398 1009 b 719 1194 682 1009 715 1101 l 689 1196 b 541 1040 683 1078 633 1040 b 392 1196 448 1040 398 1078 z "},"Ą":{"ha":1088,"x_min":0,"x_max":0,"o":"m 970 -278 b 1056 -265 1014 -278 1045 -267 l 1049 -235 b 972 -247 1032 -240 1005 -247 b 849 -153 926 -247 849 -228 b 1037 10 849 -78 913 -31 l 566 895 l 519 895 l 54 15 l 83 0 l 207 233 l 881 233 l 990 24 b 817 -155 872 -21 817 -74 b 970 -278 817 -229 882 -278 z m 224 263 l 542 868 l 864 263 z "},"Ǻ":{"ha":1088,"x_min":0,"x_max":0,"o":"m 54 15 l 83 0 l 207 233 l 881 233 l 1003 0 l 1034 15 l 566 895 l 519 895 z m 224 263 l 542 868 l 864 263 z m 417 1191 l 431 1165 l 691 1297 l 676 1327 z m 418 1040 b 542 932 418 978 464 932 b 666 1040 616 932 666 978 b 542 1147 666 1101 615 1147 b 418 1040 469 1147 418 1101 z m 449 1040 b 542 1120 449 1085 485 1120 b 635 1040 600 1120 635 1085 b 542 959 635 994 599 959 b 449 1040 485 959 449 994 z "},"B":{"ha":1158,"x_min":0,"x_max":0,"o":"m 717 895 l 186 895 l 186 0 l 679 0 b 1034 240 882 0 1034 47 b 842 474 1034 386 954 455 b 992 679 940 506 992 581 b 717 895 992 813 915 895 z m 219 31 l 219 456 l 741 456 b 999 242 937 456 999 365 b 673 31 999 74 864 31 z m 219 486 l 219 865 l 708 865 b 957 677 874 865 957 811 b 727 486 957 598 903 486 z "},"C":{"ha":1103,"x_min":0,"x_max":0,"o":"m 125 434 b 608 -8 125 137 315 -8 b 969 69 767 -8 869 26 l 956 98 b 612 24 860 58 767 24 b 160 433 332 24 160 156 b 627 872 160 763 375 872 b 949 811 746 872 844 852 l 961 841 b 628 903 839 888 737 903 b 125 434 387 903 125 798 z "},"Ç":{"ha":1103,"x_min":0,"x_max":0,"o":"m 125 434 b 591 -8 125 143 307 -2 b 686 -149 654 -46 686 -92 b 567 -247 686 -236 592 -247 b 488 -235 528 -247 504 -240 l 480 -264 b 566 -278 489 -266 510 -278 b 719 -151 656 -278 719 -228 b 644 -7 719 -90 694 -44 b 969 69 783 -2 877 30 l 956 98 b 612 24 860 58 767 24 b 160 433 332 24 160 156 b 627 872 160 763 375 872 b 949 811 746 872 844 852 l 961 841 b 628 903 839 888 737 903 b 125 434 387 903 125 798 z "},"Ć":{"ha":1103,"x_min":0,"x_max":0,"o":"m 125 434 b 608 -8 125 137 315 -8 b 969 69 767 -8 869 26 l 956 98 b 612 24 860 58 767 24 b 160 433 332 24 160 156 b 627 872 160 763 375 872 b 949 811 746 872 844 852 l 961 841 b 628 903 839 888 737 903 b 125 434 387 903 125 798 z m 499 1033 l 512 1008 l 772 1139 l 757 1169 z "},"Ĉ":{"ha":1103,"x_min":0,"x_max":0,"o":"m 125 434 b 608 -8 125 137 315 -8 b 969 69 767 -8 869 26 l 956 98 b 612 24 860 58 767 24 b 160 433 332 24 160 156 b 627 872 160 763 375 872 b 949 811 746 872 844 852 l 961 841 b 628 903 839 888 737 903 b 125 434 387 903 125 798 z m 395 1031 l 416 1009 l 610 1188 l 803 1009 l 824 1031 l 630 1211 l 590 1211 z "},"Ċ":{"ha":1103,"x_min":0,"x_max":0,"o":"m 125 434 b 608 -8 125 137 315 -8 b 969 69 767 -8 869 26 l 956 98 b 612 24 860 58 767 24 b 160 433 332 24 160 156 b 627 872 160 763 375 872 b 949 811 746 872 844 852 l 961 841 b 628 903 839 888 737 903 b 125 434 387 903 125 798 z m 612 1028 l 644 1028 l 644 1112 l 612 1112 z "},"Č":{"ha":1103,"x_min":0,"x_max":0,"o":"m 125 434 b 608 -8 125 137 315 -8 b 969 69 767 -8 869 26 l 956 98 b 612 24 860 58 767 24 b 160 433 332 24 160 156 b 627 872 160 763 375 872 b 949 811 746 872 844 852 l 961 841 b 628 903 839 888 737 903 b 125 434 387 903 125 798 z m 400 1194 l 595 1014 l 635 1014 l 828 1194 l 808 1216 l 615 1038 l 421 1216 z "},"D":{"ha":1168,"x_min":0,"x_max":0,"o":"m 550 895 l 186 895 l 186 0 l 549 0 b 1043 440 885 0 1043 156 b 550 895 1043 738 899 895 z m 219 31 l 219 865 l 544 865 b 1008 440 878 865 1008 722 b 544 31 1008 185 876 31 z "},"Ď":{"ha":1168,"x_min":0,"x_max":0,"o":"m 550 895 l 186 895 l 186 0 l 549 0 b 1043 440 885 0 1043 156 b 550 895 1043 738 899 895 z m 219 31 l 219 865 l 544 865 b 1008 440 878 865 1008 722 b 544 31 1008 185 876 31 z m 351 1194 l 547 1014 l 586 1014 l 780 1194 l 759 1216 l 566 1038 l 372 1216 z "},"E":{"ha":1046,"x_min":0,"x_max":0,"o":"m 186 895 l 186 0 l 945 0 l 945 31 l 219 31 l 219 435 l 817 435 l 817 466 l 219 466 l 219 865 l 933 865 l 933 895 z "},"È":{"ha":1046,"x_min":0,"x_max":0,"o":"m 186 895 l 186 0 l 945 0 l 945 31 l 219 31 l 219 435 l 817 435 l 817 466 l 219 466 l 219 865 l 933 865 l 933 895 z m 382 1144 l 642 1008 l 657 1034 l 399 1174 z "},"É":{"ha":1046,"x_min":0,"x_max":0,"o":"m 186 895 l 186 0 l 945 0 l 945 31 l 219 31 l 219 435 l 817 435 l 817 466 l 219 466 l 219 865 l 933 865 l 933 895 z m 465 1035 l 478 1010 l 739 1141 l 724 1172 z "},"Ê":{"ha":1046,"x_min":0,"x_max":0,"o":"m 186 895 l 186 0 l 945 0 l 945 31 l 219 31 l 219 435 l 817 435 l 817 466 l 219 466 l 219 865 l 933 865 l 933 895 z m 346 1031 l 367 1010 l 560 1188 l 753 1010 l 774 1031 l 581 1212 l 541 1212 z "},"Ë":{"ha":1046,"x_min":0,"x_max":0,"o":"m 186 895 l 186 0 l 945 0 l 945 31 l 219 31 l 219 435 l 817 435 l 817 466 l 219 466 l 219 865 l 933 865 l 933 895 z m 464 1028 l 497 1028 l 497 1113 l 464 1113 z m 640 1028 l 672 1028 l 672 1113 l 640 1113 z "},"Ē":{"ha":1046,"x_min":0,"x_max":0,"o":"m 186 895 l 186 0 l 945 0 l 945 31 l 219 31 l 219 435 l 817 435 l 817 466 l 219 466 l 219 865 l 933 865 l 933 895 z m 397 1028 l 749 1028 l 749 1058 l 397 1058 z "},"Ĕ":{"ha":1046,"x_min":0,"x_max":0,"o":"m 186 895 l 186 0 l 945 0 l 945 31 l 219 31 l 219 435 l 817 435 l 817 466 l 219 466 l 219 865 l 933 865 l 933 895 z m 392 1194 b 572 1009 397 1101 429 1009 b 751 1194 713 1009 746 1101 l 720 1196 b 572 1040 714 1078 664 1040 b 423 1196 479 1040 429 1078 z "},"Ė":{"ha":1046,"x_min":0,"x_max":0,"o":"m 186 895 l 186 0 l 945 0 l 945 31 l 219 31 l 219 435 l 817 435 l 817 466 l 219 466 l 219 865 l 933 865 l 933 895 z m 556 1028 l 588 1028 l 588 1112 l 556 1112 z "},"Ę":{"ha":1046,"x_min":0,"x_max":0,"o":"m 866 -278 b 960 -265 913 -278 949 -267 l 953 -235 b 866 -247 935 -240 899 -247 b 767 -162 810 -247 767 -214 b 945 0 767 -97 826 -51 l 945 31 l 219 31 l 219 435 l 817 435 l 817 466 l 219 466 l 219 865 l 933 865 l 933 895 l 186 895 l 186 0 l 878 0 b 735 -164 782 -45 735 -93 b 866 -278 735 -230 785 -278 z "},"Ě":{"ha":1046,"x_min":0,"x_max":0,"o":"m 186 895 l 186 0 l 945 0 l 945 31 l 219 31 l 219 435 l 817 435 l 817 466 l 219 466 l 219 865 l 933 865 l 933 895 z m 360 1194 l 556 1014 l 595 1014 l 789 1194 l 768 1216 l 575 1038 l 381 1216 z "},"F":{"ha":974,"x_min":0,"x_max":0,"o":"m 186 895 l 186 0 l 219 0 l 219 412 l 783 412 l 783 442 l 219 442 l 219 865 l 915 865 l 915 895 z "},"G":{"ha":1176,"x_min":0,"x_max":0,"o":"m 125 447 b 614 -8 125 113 342 -8 b 1008 71 771 -8 917 36 l 1008 417 l 606 417 l 606 385 l 975 385 l 975 95 b 616 24 895 63 765 24 b 160 445 344 24 160 149 b 630 873 160 731 371 873 b 957 816 768 873 840 855 l 969 847 b 632 904 856 884 761 904 b 125 447 367 904 125 756 z "},"Ĝ":{"ha":1176,"x_min":0,"x_max":0,"o":"m 125 447 b 614 -8 125 113 342 -8 b 1008 71 771 -8 917 36 l 1008 417 l 606 417 l 606 385 l 975 385 l 975 95 b 616 24 895 63 765 24 b 160 445 344 24 160 149 b 630 873 160 731 371 873 b 957 816 768 873 840 855 l 969 847 b 632 904 856 884 761 904 b 125 447 367 904 125 756 z m 389 1031 l 410 1010 l 603 1188 l 797 1010 l 817 1031 l 624 1212 l 584 1212 z "},"Ğ":{"ha":1176,"x_min":0,"x_max":0,"o":"m 125 447 b 614 -8 125 113 342 -8 b 1008 71 771 -8 917 36 l 1008 417 l 606 417 l 606 385 l 975 385 l 975 95 b 616 24 895 63 765 24 b 160 445 344 24 160 149 b 630 873 160 731 371 873 b 957 816 768 873 840 855 l 969 847 b 632 904 856 884 761 904 b 125 447 367 904 125 756 z m 428 1194 b 607 1009 433 1101 465 1009 b 786 1194 749 1009 781 1101 l 756 1196 b 608 1040 749 1078 699 1040 b 458 1196 515 1040 465 1078 z "},"Ġ":{"ha":1176,"x_min":0,"x_max":0,"o":"m 125 447 b 614 -8 125 113 342 -8 b 1008 71 771 -8 917 36 l 1008 417 l 606 417 l 606 385 l 975 385 l 975 95 b 616 24 895 63 765 24 b 160 445 344 24 160 149 b 630 873 160 731 371 873 b 957 816 768 873 840 855 l 969 847 b 632 904 856 884 761 904 b 125 447 367 904 125 756 z m 601 1028 l 633 1028 l 633 1112 l 601 1112 z "},"Ģ":{"ha":1176,"x_min":0,"x_max":0,"o":"m 125 447 b 614 -8 125 113 342 -8 b 1008 71 771 -8 917 36 l 1008 417 l 606 417 l 606 385 l 975 385 l 975 95 b 616 24 895 63 765 24 b 160 445 344 24 160 149 b 630 873 160 731 371 873 b 957 816 768 873 840 855 l 969 847 b 632 904 856 884 761 904 b 125 447 367 904 125 756 z m 572 -349 l 597 -362 l 663 -235 l 663 -106 l 632 -106 l 632 -230 z "},"H":{"ha":1267,"x_min":0,"x_max":0,"o":"m 186 895 l 186 0 l 219 0 l 219 418 l 1048 418 l 1048 0 l 1081 0 l 1081 895 l 1048 895 l 1048 449 l 219 449 l 219 895 z "},"Ĥ":{"ha":1267,"x_min":0,"x_max":0,"o":"m 186 895 l 186 0 l 219 0 l 219 418 l 1048 418 l 1048 0 l 1081 0 l 1081 895 l 1048 895 l 1048 449 l 219 449 l 219 895 z m 439 1032 l 460 1010 l 653 1189 l 847 1010 l 867 1032 l 674 1213 l 634 1213 z "},"I":{"ha":406,"x_min":0,"x_max":0,"o":"m 186 895 l 186 0 l 219 0 l 219 895 z "},"Ì":{"ha":406,"x_min":0,"x_max":0,"o":"m 186 895 l 186 0 l 219 0 l 219 895 z m -47 1144 l 213 1008 l 228 1033 l -31 1174 z "},"Í":{"ha":406,"x_min":0,"x_max":0,"o":"m 186 895 l 186 0 l 219 0 l 219 895 z m 181 1034 l 194 1008 l 455 1140 l 440 1170 z "},"Î":{"ha":406,"x_min":0,"x_max":0,"o":"m 186 895 l 186 0 l 219 0 l 219 895 z m -12 1031 l 9 1009 l 203 1188 l 396 1009 l 417 1031 l 223 1211 l 183 1211 z "},"Ï":{"ha":406,"x_min":0,"x_max":0,"o":"m 186 895 l 186 0 l 219 0 l 219 895 z m 99 1028 l 131 1028 l 131 1113 l 99 1113 z m 274 1028 l 307 1028 l 307 1113 l 274 1113 z "},"Ĩ":{"ha":406,"x_min":0,"x_max":0,"o":"m 186 895 l 186 0 l 219 0 l 219 895 z m -17 1041 l 9 1025 b 102 1081 33 1064 67 1081 b 211 1044 142 1081 176 1061 b 322 1012 243 1028 284 1012 b 438 1078 363 1012 407 1030 l 412 1095 b 323 1044 388 1058 358 1044 b 212 1078 278 1044 246 1063 b 105 1111 178 1094 144 1111 b -17 1041 60 1111 12 1092 z "},"Ī":{"ha":406,"x_min":0,"x_max":0,"o":"m 186 895 l 186 0 l 219 0 l 219 895 z m 26 1028 l 379 1028 l 379 1058 l 26 1058 z "},"Ĭ":{"ha":406,"x_min":0,"x_max":0,"o":"m 186 895 l 186 0 l 219 0 l 219 895 z m 24 1194 b 203 1009 29 1101 61 1009 b 383 1194 345 1009 378 1101 l 352 1196 b 204 1040 346 1078 296 1040 b 55 1196 111 1040 61 1078 z "},"Į":{"ha":406,"x_min":0,"x_max":0,"o":"m 196 -278 b 290 -265 242 -278 278 -267 l 283 -235 b 196 -247 265 -240 229 -247 b 97 -153 140 -247 97 -214 b 219 0 97 -87 144 -44 l 219 895 l 186 895 l 186 15 b 64 -155 113 -30 64 -79 b 196 -278 64 -230 114 -278 z "},"İ":{"ha":406,"x_min":0,"x_max":0,"o":"m 186 895 l 186 0 l 219 0 l 219 895 z m 186 1028 l 219 1028 l 219 1112 l 186 1112 z "},"J":{"ha":863,"x_min":0,"x_max":0,"o":"m 95 88 l 78 58 b 363 -8 124 31 221 -8 b 699 303 547 -8 699 68 l 699 895 l 665 895 l 665 303 b 363 24 665 94 522 24 b 95 88 226 24 148 61 z "},"Ĵ":{"ha":863,"x_min":0,"x_max":0,"o":"m 95 88 l 78 58 b 363 -8 124 31 221 -8 b 699 303 547 -8 699 68 l 699 895 l 665 895 l 665 303 b 363 24 665 94 522 24 b 95 88 226 24 148 61 z m 463 1032 l 483 1010 l 677 1189 l 870 1010 l 891 1032 l 697 1213 l 658 1213 z "},"K":{"ha":1175,"x_min":0,"x_max":0,"o":"m 673 521 l 1089 -5 l 1116 17 l 700 543 l 1089 878 l 1068 903 l 219 178 l 219 895 l 186 895 l 186 0 l 219 0 l 219 135 z "},"Ķ":{"ha":1175,"x_min":0,"x_max":0,"o":"m 673 521 l 1089 -5 l 1116 17 l 700 543 l 1089 878 l 1068 903 l 219 178 l 219 895 l 186 895 l 186 0 l 219 0 l 219 135 z m 562 -350 l 587 -363 l 653 -236 l 653 -107 l 622 -107 l 622 -231 z "},"L":{"ha":928,"x_min":0,"x_max":0,"o":"m 186 895 l 186 0 l 911 0 l 911 31 l 219 31 l 219 895 z "},"Ĺ":{"ha":928,"x_min":0,"x_max":0,"o":"m 186 895 l 186 0 l 911 0 l 911 31 l 219 31 l 219 895 z m 181 1035 l 194 1010 l 454 1141 l 439 1172 z "},"Ļ":{"ha":928,"x_min":0,"x_max":0,"o":"m 186 895 l 186 0 l 911 0 l 911 31 l 219 31 l 219 895 z m 473 -350 l 498 -363 l 564 -236 l 564 -107 l 533 -107 l 533 -231 z "},"Ľ":{"ha":928,"x_min":0,"x_max":0,"o":"m 186 895 l 186 0 l 911 0 l 911 31 l 219 31 l 219 895 z m 608 677 l 635 672 l 685 888 l 653 894 z "},"M":{"ha":1458,"x_min":0,"x_max":0,"o":"m 186 895 l 186 0 l 219 0 l 219 849 l 710 60 l 748 60 l 1239 849 l 1239 0 l 1272 0 l 1272 895 l 1228 895 l 729 94 l 229 895 z "},"N":{"ha":1228,"x_min":0,"x_max":0,"o":"m 186 895 l 186 0 l 219 0 l 219 858 l 999 0 l 1042 0 l 1042 895 l 1008 895 l 1008 40 l 233 895 z "},"Ñ":{"ha":1228,"x_min":0,"x_max":0,"o":"m 186 895 l 186 0 l 219 0 l 219 858 l 999 0 l 1042 0 l 1042 895 l 1008 895 l 1008 40 l 233 895 z m 397 1041 l 423 1025 b 516 1081 447 1064 481 1081 b 625 1044 556 1081 590 1061 b 736 1012 657 1028 698 1012 b 852 1078 777 1012 821 1030 l 826 1095 b 737 1044 801 1058 772 1044 b 626 1078 692 1044 660 1063 b 519 1111 592 1094 558 1111 b 397 1041 474 1111 426 1092 z "},"Ń":{"ha":1228,"x_min":0,"x_max":0,"o":"m 186 895 l 186 0 l 219 0 l 219 858 l 999 0 l 1042 0 l 1042 895 l 1008 895 l 1008 40 l 233 895 z m 580 1035 l 593 1010 l 853 1141 l 838 1172 z "},"Ņ":{"ha":1228,"x_min":0,"x_max":0,"o":"m 186 895 l 186 0 l 219 0 l 219 858 l 999 0 l 1042 0 l 1042 895 l 1008 895 l 1008 40 l 233 895 z m 560 -349 l 585 -362 l 651 -235 l 651 -106 l 621 -106 l 621 -230 z "},"Ň":{"ha":1228,"x_min":0,"x_max":0,"o":"m 186 895 l 186 0 l 219 0 l 219 858 l 999 0 l 1042 0 l 1042 895 l 1008 895 l 1008 40 l 233 895 z m 433 1194 l 628 1014 l 668 1014 l 862 1194 l 841 1216 l 648 1038 l 454 1216 z "},"O":{"ha":1278,"x_min":0,"x_max":0,"o":"m 125 449 b 639 -8 125 126 383 -8 b 1153 449 895 -8 1153 126 b 639 906 1153 772 895 906 b 125 449 383 906 125 772 z m 160 449 b 639 873 160 747 386 873 b 1118 449 892 873 1118 747 b 639 26 1118 152 892 26 b 160 449 386 26 160 152 z "},"Ò":{"ha":1278,"x_min":0,"x_max":0,"o":"m 125 449 b 639 -8 125 126 383 -8 b 1153 449 895 -8 1153 126 b 639 906 1153 772 895 906 b 125 449 383 906 125 772 z m 160 449 b 639 873 160 747 386 873 b 1118 449 892 873 1118 747 b 639 26 1118 152 892 26 b 160 449 386 26 160 152 z m 480 1144 l 740 1008 l 755 1034 l 497 1174 z "},"Ó":{"ha":1278,"x_min":0,"x_max":0,"o":"m 125 449 b 639 -8 125 126 383 -8 b 1153 449 895 -8 1153 126 b 639 906 1153 772 895 906 b 125 449 383 906 125 772 z m 160 449 b 639 873 160 747 386 873 b 1118 449 892 873 1118 747 b 639 26 1118 152 892 26 b 160 449 386 26 160 152 z m 549 1034 l 563 1008 l 823 1140 l 808 1170 z "},"Ô":{"ha":1278,"x_min":0,"x_max":0,"o":"m 125 449 b 639 -8 125 126 383 -8 b 1153 449 895 -8 1153 126 b 639 906 1153 772 895 906 b 125 449 383 906 125 772 z m 160 449 b 639 873 160 747 386 873 b 1118 449 892 873 1118 747 b 639 26 1118 152 892 26 b 160 449 386 26 160 152 z m 419 1031 l 440 1009 l 634 1188 l 827 1009 l 848 1031 l 654 1211 l 615 1211 z "},"Õ":{"ha":1278,"x_min":0,"x_max":0,"o":"m 125 449 b 639 -8 125 126 383 -8 b 1153 449 895 -8 1153 126 b 639 906 1153 772 895 906 b 125 449 383 906 125 772 z m 160 449 b 639 873 160 747 386 873 b 1118 449 892 873 1118 747 b 639 26 1118 152 892 26 b 160 449 386 26 160 152 z m 417 1041 l 443 1025 b 536 1081 467 1064 501 1081 b 645 1044 576 1081 610 1061 b 756 1012 677 1028 718 1012 b 872 1078 797 1012 841 1030 l 846 1095 b 757 1044 822 1058 792 1044 b 646 1078 713 1044 680 1063 b 539 1111 613 1094 578 1111 b 417 1041 494 1111 446 1092 z "},"Ö":{"ha":1278,"x_min":0,"x_max":0,"o":"m 125 449 b 639 -8 125 126 383 -8 b 1153 449 895 -8 1153 126 b 639 906 1153 772 895 906 b 125 449 383 906 125 772 z m 160 449 b 639 873 160 747 386 873 b 1118 449 892 873 1118 747 b 639 26 1118 152 892 26 b 160 449 386 26 160 152 z m 531 1028 l 564 1028 l 564 1113 l 531 1113 z m 707 1028 l 740 1028 l 740 1113 l 707 1113 z "},"Ō":{"ha":1278,"x_min":0,"x_max":0,"o":"m 125 449 b 639 -8 125 126 383 -8 b 1153 449 895 -8 1153 126 b 639 906 1153 772 895 906 b 125 449 383 906 125 772 z m 160 449 b 639 873 160 747 386 873 b 1118 449 892 873 1118 747 b 639 26 1118 152 892 26 b 160 449 386 26 160 152 z m 462 1028 l 815 1028 l 815 1058 l 462 1058 z "},"Ŏ":{"ha":1278,"x_min":0,"x_max":0,"o":"m 125 449 b 639 -8 125 126 383 -8 b 1153 449 895 -8 1153 126 b 639 906 1153 772 895 906 b 125 449 383 906 125 772 z m 160 449 b 639 873 160 747 386 873 b 1118 449 892 873 1118 747 b 639 26 1118 152 892 26 b 160 449 386 26 160 152 z m 457 1194 b 636 1009 462 1101 494 1009 b 815 1194 778 1009 810 1101 l 785 1196 b 637 1040 778 1078 728 1040 b 488 1196 544 1040 494 1078 z "},"Ő":{"ha":1278,"x_min":0,"x_max":0,"o":"m 125 449 b 639 -8 125 126 383 -8 b 1153 449 895 -8 1153 126 b 639 906 1153 772 895 906 b 125 449 383 906 125 772 z m 160 449 b 639 873 160 747 386 873 b 1118 449 892 873 1118 747 b 639 26 1118 152 892 26 b 160 449 386 26 160 152 z m 457 1032 l 478 1011 l 685 1217 l 660 1242 z m 707 1032 l 728 1011 l 935 1217 l 910 1242 z "},"P":{"ha":1124,"x_min":0,"x_max":0,"o":"m 703 895 l 186 895 l 186 0 l 219 0 l 219 282 l 704 282 b 1037 583 910 282 1037 381 b 703 895 1037 778 933 895 z m 219 313 l 219 865 l 703 865 b 1002 583 910 865 1002 758 b 705 313 1002 419 904 313 z "},"Q":{"ha":1278,"x_min":0,"x_max":0,"o":"m 683 306 l 821 50 b 639 26 764 33 702 26 b 160 449 386 26 160 152 b 639 873 160 747 386 873 b 1118 449 892 873 1118 747 b 853 60 1118 241 1006 116 l 711 322 z m 125 449 b 639 -8 125 126 383 -8 b 836 21 706 -8 774 1 l 941 -173 l 970 -156 l 868 32 b 1153 449 1029 92 1153 226 b 639 906 1153 772 895 906 b 125 449 383 906 125 772 z "},"R":{"ha":1153,"x_min":0,"x_max":0,"o":"m 799 338 l 976 -5 l 1008 10 l 834 347 b 1024 609 957 383 1024 472 b 694 895 1024 774 944 895 l 186 895 l 186 0 l 219 0 l 219 329 l 700 329 b 799 338 736 329 769 332 z m 219 360 l 219 865 l 694 865 b 990 611 917 865 990 758 b 698 360 990 456 899 360 z "},"Ŕ":{"ha":1153,"x_min":0,"x_max":0,"o":"m 799 338 l 976 -5 l 1008 10 l 834 347 b 1024 609 957 383 1024 472 b 694 895 1024 774 944 895 l 186 895 l 186 0 l 219 0 l 219 329 l 700 329 b 799 338 736 329 769 332 z m 219 360 l 219 865 l 694 865 b 990 611 917 865 990 758 b 698 360 990 456 899 360 z m 473 1035 l 486 1010 l 747 1141 l 731 1172 z "},"Ŗ":{"ha":1153,"x_min":0,"x_max":0,"o":"m 799 338 l 976 -5 l 1008 10 l 834 347 b 1024 609 957 383 1024 472 b 694 895 1024 774 944 895 l 186 895 l 186 0 l 219 0 l 219 329 l 700 329 b 799 338 736 329 769 332 z m 219 360 l 219 865 l 694 865 b 990 611 917 865 990 758 b 698 360 990 456 899 360 z m 508 -350 l 533 -363 l 599 -236 l 599 -107 l 568 -107 l 568 -231 z "},"Ř":{"ha":1153,"x_min":0,"x_max":0,"o":"m 799 338 l 976 -5 l 1008 10 l 834 347 b 1024 609 957 383 1024 472 b 694 895 1024 774 944 895 l 186 895 l 186 0 l 219 0 l 219 329 l 700 329 b 799 338 736 329 769 332 z m 219 360 l 219 865 l 694 865 b 990 611 917 865 990 758 b 698 360 990 456 899 360 z m 365 1194 l 560 1014 l 599 1014 l 793 1194 l 772 1216 l 579 1038 l 385 1216 z "},"S":{"ha":1067,"x_min":0,"x_max":0,"o":"m 139 87 l 126 55 b 530 -8 201 28 339 -8 b 948 252 783 -8 948 58 b 592 482 948 442 774 469 b 187 666 394 495 187 492 b 553 873 187 798 306 873 b 875 822 695 873 817 842 l 887 853 b 552 904 823 874 700 904 b 152 667 292 904 152 813 b 569 449 152 464 367 461 b 913 251 747 438 913 419 b 531 24 913 74 742 24 b 139 87 354 24 230 56 z "},"Ś":{"ha":1067,"x_min":0,"x_max":0,"o":"m 139 87 l 126 55 b 530 -8 201 28 339 -8 b 948 252 783 -8 948 58 b 592 482 948 442 774 469 b 187 666 394 495 187 492 b 553 873 187 798 306 873 b 875 822 695 873 817 842 l 887 853 b 552 904 823 874 700 904 b 152 667 292 904 152 813 b 569 449 152 464 367 461 b 913 251 747 438 913 419 b 531 24 913 74 742 24 b 139 87 354 24 230 56 z m 467 1035 l 480 1010 l 740 1141 l 725 1172 z "},"Ŝ":{"ha":1067,"x_min":0,"x_max":0,"o":"m 139 87 l 126 55 b 530 -8 201 28 339 -8 b 948 252 783 -8 948 58 b 592 482 948 442 774 469 b 187 666 394 495 187 492 b 553 873 187 798 306 873 b 875 822 695 873 817 842 l 887 853 b 552 904 823 874 700 904 b 152 667 292 904 152 813 b 569 449 152 464 367 461 b 913 251 747 438 913 419 b 531 24 913 74 742 24 b 139 87 354 24 230 56 z m 326 1031 l 347 1009 l 540 1188 l 733 1009 l 754 1031 l 560 1211 l 521 1211 z "},"Ş":{"ha":1067,"x_min":0,"x_max":0,"o":"m 139 87 l 126 55 b 524 -8 201 28 336 -7 b 617 -147 585 -46 617 -92 b 497 -246 617 -235 523 -246 b 418 -234 459 -246 435 -239 l 410 -262 b 497 -276 419 -265 441 -276 b 650 -149 587 -276 650 -226 b 576 -7 650 -90 625 -44 b 948 252 803 1 948 70 b 592 482 948 442 774 469 b 187 666 394 495 187 492 b 553 873 187 798 306 873 b 875 822 695 873 817 842 l 887 853 b 552 904 823 874 700 904 b 152 667 292 904 152 813 b 569 449 152 464 367 461 b 913 251 747 438 913 419 b 531 24 913 74 742 24 b 139 87 354 24 230 56 z "},"Š":{"ha":1067,"x_min":0,"x_max":0,"o":"m 139 87 l 126 55 b 530 -8 201 28 339 -8 b 948 252 783 -8 948 58 b 592 482 948 442 774 469 b 187 666 394 495 187 492 b 553 873 187 798 306 873 b 875 822 695 873 817 842 l 887 853 b 552 904 823 874 700 904 b 152 667 292 904 152 813 b 569 449 152 464 367 461 b 913 251 747 438 913 419 b 531 24 913 74 742 24 b 139 87 354 24 230 56 z m 348 1194 l 543 1014 l 583 1014 l 776 1194 l 756 1216 l 563 1038 l 369 1216 z "},"Ș":{"ha":1067,"x_min":0,"x_max":0,"o":"m 479 -350 l 504 -363 l 570 -236 l 570 -107 l 540 -107 l 540 -231 z m 126 55 b 530 -8 201 28 339 -8 b 948 252 783 -8 948 58 b 592 482 948 442 774 469 b 187 666 394 495 187 492 b 553 873 187 798 306 873 b 875 822 695 873 817 842 l 887 853 b 552 904 823 874 700 904 b 152 667 292 904 152 813 b 569 449 152 464 367 461 b 913 251 747 438 913 419 b 531 24 913 74 742 24 b 139 87 354 24 230 56 z "},"T":{"ha":982,"x_min":0,"x_max":0,"o":"m 463 865 l 463 0 l 496 0 l 496 865 l 951 865 l 951 895 l 31 895 l 31 865 z "},"Ţ":{"ha":982,"x_min":0,"x_max":0,"o":"m 403 -349 l 428 -362 l 494 -235 l 494 -106 l 464 -106 l 464 -230 z m 31 865 l 463 865 l 463 0 l 496 0 l 496 865 l 951 865 l 951 895 l 31 895 z "},"Ť":{"ha":982,"x_min":0,"x_max":0,"o":"m 265 1194 l 460 1013 l 500 1013 l 694 1194 l 673 1215 l 480 1037 l 286 1215 z m 31 865 l 463 865 l 463 0 l 496 0 l 496 865 l 951 865 l 951 895 l 31 895 z "},"U":{"ha":1185,"x_min":0,"x_max":0,"o":"m 164 397 b 592 -8 164 81 356 -8 b 1021 397 829 -8 1021 81 l 1021 895 l 988 895 l 988 399 b 592 25 988 101 803 25 b 197 399 382 25 197 101 l 197 895 l 164 895 z "},"Ù":{"ha":1185,"x_min":0,"x_max":0,"o":"m 164 397 b 592 -8 164 81 356 -8 b 1021 397 829 -8 1021 81 l 1021 895 l 988 895 l 988 399 b 592 25 988 101 803 25 b 197 399 382 25 197 101 l 197 895 l 164 895 z m 369 1144 l 629 1008 l 644 1033 l 385 1174 z "},"Ú":{"ha":1185,"x_min":0,"x_max":0,"o":"m 519 1035 l 532 1009 l 792 1140 l 777 1171 z m 164 397 b 592 -8 164 81 356 -8 b 1021 397 829 -8 1021 81 l 1021 895 l 988 895 l 988 399 b 592 25 988 101 803 25 b 197 399 382 25 197 101 l 197 895 l 164 895 z "},"Û":{"ha":1185,"x_min":0,"x_max":0,"o":"m 378 1031 l 399 1010 l 593 1188 l 786 1010 l 807 1031 l 613 1212 l 574 1212 z m 164 397 b 592 -8 164 81 356 -8 b 1021 397 829 -8 1021 81 l 1021 895 l 988 895 l 988 399 b 592 25 988 101 803 25 b 197 399 382 25 197 101 l 197 895 l 164 895 z "},"Ü":{"ha":1185,"x_min":0,"x_max":0,"o":"m 488 1113 l 488 1028 l 521 1028 l 521 1113 z m 164 397 b 592 -8 164 81 356 -8 b 1021 397 829 -8 1021 81 l 1021 895 l 988 895 l 988 399 b 592 25 988 101 803 25 b 197 399 382 25 197 101 l 197 895 l 164 895 z m 664 1028 l 697 1028 l 697 1113 l 664 1113 z "},"Ũ":{"ha":1185,"x_min":0,"x_max":0,"o":"m 164 397 b 592 -8 164 81 356 -8 b 1021 397 829 -8 1021 81 l 1021 895 l 988 895 l 988 399 b 592 25 988 101 803 25 b 197 399 382 25 197 101 l 197 895 l 164 895 z m 374 1041 l 399 1025 b 492 1081 424 1064 457 1081 b 601 1044 533 1081 567 1061 b 713 1012 633 1028 674 1012 b 828 1078 753 1012 797 1030 l 802 1095 b 713 1044 778 1058 748 1044 b 602 1078 669 1044 636 1063 b 495 1111 569 1094 534 1111 b 374 1041 451 1111 402 1092 z "},"Ū":{"ha":1185,"x_min":0,"x_max":0,"o":"m 164 397 b 592 -8 164 81 356 -8 b 1021 397 829 -8 1021 81 l 1021 895 l 988 895 l 988 399 b 592 25 988 101 803 25 b 197 399 382 25 197 101 l 197 895 l 164 895 z m 416 1028 l 769 1028 l 769 1058 l 416 1058 z "},"Ŭ":{"ha":1185,"x_min":0,"x_max":0,"o":"m 164 397 b 592 -8 164 81 356 -8 b 1021 397 829 -8 1021 81 l 1021 895 l 988 895 l 988 399 b 592 25 988 101 803 25 b 197 399 382 25 197 101 l 197 895 l 164 895 z m 413 1194 b 592 1009 418 1101 450 1009 b 772 1194 734 1009 767 1101 l 741 1196 b 593 1040 735 1078 685 1040 b 444 1196 500 1040 450 1078 z "},"Ů":{"ha":1185,"x_min":0,"x_max":0,"o":"m 469 1106 b 592 998 469 1044 515 998 b 717 1106 667 998 717 1044 b 592 1213 717 1167 666 1213 b 469 1106 519 1213 469 1167 z m 164 397 b 592 -8 164 81 356 -8 b 1021 397 829 -8 1021 81 l 1021 895 l 988 895 l 988 399 b 592 25 988 101 803 25 b 197 399 382 25 197 101 l 197 895 l 164 895 z m 499 1106 b 593 1186 499 1151 535 1186 b 686 1106 651 1186 686 1151 b 593 1025 686 1060 650 1025 b 499 1106 535 1025 499 1060 z "},"Ű":{"ha":1185,"x_min":0,"x_max":0,"o":"m 164 397 b 592 -8 164 81 356 -8 b 1021 397 829 -8 1021 81 l 1021 895 l 988 895 l 988 399 b 592 25 988 101 803 25 b 197 399 382 25 197 101 l 197 895 l 164 895 z m 440 1031 l 461 1010 l 667 1217 l 643 1242 z m 690 1031 l 711 1010 l 917 1217 l 893 1242 z "},"Ų":{"ha":1185,"x_min":0,"x_max":0,"o":"m 519 -154 b 665 -278 519 -229 574 -278 b 759 -264 711 -278 747 -267 l 751 -235 b 665 -247 733 -240 698 -247 b 552 -152 601 -247 552 -213 b 663 -5 552 -90 594 -47 b 1021 397 866 13 1021 113 l 1021 895 l 988 895 l 988 399 b 592 25 988 101 803 25 b 197 399 382 25 197 101 l 197 895 l 164 895 l 164 397 b 592 -8 164 81 356 -8 l 604 -8 b 519 -154 551 -47 519 -92 z "},"V":{"ha":1078,"x_min":0,"x_max":0,"o":"m 44 885 l 520 -2 l 558 0 l 1035 885 l 1006 901 l 539 35 l 76 900 z "},"W":{"ha":1529,"x_min":0,"x_max":0,"o":"m 81 887 l 419 0 l 461 0 l 765 858 l 1068 0 l 1110 0 l 1449 888 l 1418 900 l 1089 38 l 787 895 l 742 895 l 441 39 l 113 900 z "},"Ŵ":{"ha":1529,"x_min":0,"x_max":0,"o":"m 550 1031 l 571 1009 l 765 1188 l 958 1009 l 978 1031 l 785 1211 l 745 1211 z m 81 887 l 419 0 l 461 0 l 765 858 l 1068 0 l 1110 0 l 1449 888 l 1418 900 l 1089 38 l 787 895 l 742 895 l 441 39 l 113 900 z "},"Ẁ":{"ha":1529,"x_min":0,"x_max":0,"o":"m 81 887 l 419 0 l 461 0 l 765 858 l 1068 0 l 1110 0 l 1449 888 l 1418 900 l 1089 38 l 787 895 l 742 895 l 441 39 l 113 900 z m 522 1146 l 782 1010 l 797 1035 l 538 1176 z "},"Ẃ":{"ha":1529,"x_min":0,"x_max":0,"o":"m 731 1034 l 744 1008 l 1005 1140 l 990 1170 z m 81 887 l 419 0 l 461 0 l 765 858 l 1068 0 l 1110 0 l 1449 888 l 1418 900 l 1089 38 l 787 895 l 742 895 l 441 39 l 113 900 z "},"Ẅ":{"ha":1529,"x_min":0,"x_max":0,"o":"m 660 1113 l 660 1028 l 692 1028 l 692 1113 z m 81 887 l 419 0 l 461 0 l 765 858 l 1068 0 l 1110 0 l 1449 888 l 1418 900 l 1089 38 l 787 895 l 742 895 l 441 39 l 113 900 z m 835 1028 l 868 1028 l 868 1113 l 835 1113 z "},"X":{"ha":1083,"x_min":0,"x_max":0,"o":"m 69 18 l 93 -6 l 547 443 l 1006 -7 l 1031 18 l 572 467 l 988 878 l 963 901 l 548 491 l 128 901 l 104 877 l 523 467 z "},"Y":{"ha":1058,"x_min":0,"x_max":0,"o":"m 525 236 l 525 0 l 558 0 l 558 236 l 1023 881 l 997 902 l 542 271 l 62 902 l 35 881 z "},"Ý":{"ha":1058,"x_min":0,"x_max":0,"o":"m 525 236 l 525 0 l 558 0 l 558 236 l 1023 881 l 997 902 l 542 271 l 62 902 l 35 881 z m 471 1035 l 484 1010 l 744 1141 l 729 1172 z "},"Ŷ":{"ha":1058,"x_min":0,"x_max":0,"o":"m 525 236 l 525 0 l 558 0 l 558 236 l 1023 881 l 997 902 l 542 271 l 62 902 l 35 881 z m 324 1031 l 345 1010 l 539 1188 l 732 1010 l 753 1031 l 559 1212 l 519 1212 z "},"Ÿ":{"ha":1058,"x_min":0,"x_max":0,"o":"m 525 236 l 525 0 l 558 0 l 558 236 l 1023 881 l 997 902 l 542 271 l 62 902 l 35 881 z m 440 1028 l 472 1028 l 472 1113 l 440 1113 z m 615 1028 l 648 1028 l 648 1113 l 615 1113 z "},"Z":{"ha":1021,"x_min":0,"x_max":0,"o":"m 81 31 l 81 0 l 955 0 l 955 31 l 126 31 l 925 865 l 925 895 l 124 895 l 124 865 l 881 865 z "},"Ź":{"ha":1021,"x_min":0,"x_max":0,"o":"m 459 1035 l 472 1009 l 733 1140 l 717 1171 z m 81 0 l 955 0 l 955 31 l 126 31 l 925 865 l 925 895 l 124 895 l 124 865 l 881 865 l 81 31 z "},"Ż":{"ha":1021,"x_min":0,"x_max":0,"o":"m 81 31 l 81 0 l 955 0 l 955 31 l 126 31 l 925 865 l 925 895 l 124 895 l 124 865 l 881 865 z m 510 1028 l 542 1028 l 542 1112 l 510 1112 z "},"Ž":{"ha":1021,"x_min":0,"x_max":0,"o":"m 327 1195 l 522 1015 l 562 1015 l 756 1195 l 735 1217 l 542 1038 l 348 1217 z m 81 0 l 955 0 l 955 31 l 126 31 l 925 865 l 925 895 l 124 895 l 124 865 l 881 865 l 81 31 z "},"Æ":{"ha":1579,"x_min":0,"x_max":0,"o":"m 62 17 l 88 -3 l 267 235 l 728 235 l 728 0 l 1493 0 l 1493 31 l 762 31 l 762 435 l 1364 435 l 1364 466 l 762 466 l 762 865 l 1481 865 l 1481 895 l 731 895 z m 292 266 l 728 837 l 728 266 z "},"Ǽ":{"ha":1579,"x_min":0,"x_max":0,"o":"m 729 1035 l 742 1009 l 1003 1140 l 988 1171 z m 62 17 l 88 -3 l 267 235 l 728 235 l 728 0 l 1493 0 l 1493 31 l 762 31 l 762 435 l 1364 435 l 1364 466 l 762 466 l 762 865 l 1481 865 l 1481 895 l 731 895 z m 292 266 l 728 837 l 728 266 z "},"Ð":{"ha":1188,"x_min":0,"x_max":0,"o":"m 54 441 l 54 410 l 207 410 l 207 0 l 569 0 b 1064 440 906 0 1064 156 b 571 895 1064 738 920 895 l 207 895 l 207 441 z m 240 31 l 240 410 l 520 410 l 520 441 l 240 441 l 240 865 l 565 865 b 1029 440 899 865 1029 722 b 565 31 1029 185 897 31 z "},"Ø":{"ha":1278,"x_min":0,"x_max":0,"o":"m 126 17 l 149 -8 l 278 106 b 639 -8 376 28 508 -8 b 1153 449 895 -8 1153 126 b 1032 764 1153 588 1106 691 l 1161 877 l 1138 903 l 1006 788 b 639 906 908 869 774 906 b 125 449 383 906 125 772 b 252 128 125 308 175 202 z m 160 449 b 639 873 160 747 386 873 b 981 766 769 873 892 840 l 277 150 b 160 449 205 218 160 317 z m 303 127 l 1008 742 b 1118 449 1076 674 1118 578 b 639 26 1118 152 892 26 b 303 127 512 26 392 58 z "},"Ǿ":{"ha":1278,"x_min":0,"x_max":0,"o":"m 153 -8 l 281 103 b 639 -8 378 27 508 -8 b 1153 449 895 -8 1153 126 b 1034 762 1153 586 1106 689 l 1165 877 l 1142 903 l 1008 786 b 639 906 910 869 774 906 b 125 449 383 906 125 772 b 254 126 125 306 176 200 l 130 17 z m 160 449 b 639 873 160 747 386 873 b 983 765 770 873 894 839 l 279 148 b 160 449 206 217 160 315 z m 306 125 l 1009 741 b 1118 449 1076 672 1118 576 b 639 26 1118 152 892 26 b 306 125 513 26 394 57 z m 544 1035 l 557 1010 l 817 1141 l 802 1172 z "},"Þ":{"ha":1113,"x_min":0,"x_max":0,"o":"m 186 0 l 219 0 l 219 143 l 667 143 b 1009 449 911 143 1009 267 b 667 756 1009 632 911 756 l 219 756 l 219 895 l 186 895 z m 219 174 l 219 726 l 659 726 b 976 450 856 726 976 646 b 659 174 976 263 867 174 z "},"Đ":{"ha":1188,"x_min":0,"x_max":0,"o":"m 54 441 l 54 410 l 207 410 l 207 0 l 569 0 b 1064 440 906 0 1064 156 b 571 895 1064 738 920 895 l 207 895 l 207 441 z m 240 31 l 240 410 l 520 410 l 520 441 l 240 441 l 240 865 l 565 865 b 1029 440 899 865 1029 722 b 565 31 1029 185 897 31 z "},"Ħ":{"ha":1267,"x_min":0,"x_max":0,"o":"m 102 708 l 102 678 l 186 678 l 186 0 l 219 0 l 219 418 l 1048 418 l 1048 0 l 1081 0 l 1081 678 l 1171 678 l 1171 708 l 1081 708 l 1081 895 l 1048 895 l 1048 708 l 219 708 l 219 895 l 186 895 l 186 708 z m 219 449 l 219 678 l 1048 678 l 1048 449 z "},"Ĳ":{"ha":1268,"x_min":0,"x_max":0,"o":"m 186 895 l 186 0 l 219 0 l 219 895 z m 484 58 b 768 -8 530 31 626 -8 b 1104 303 953 -8 1104 68 l 1104 895 l 1071 895 l 1071 303 b 769 24 1071 94 927 24 b 501 88 632 24 553 61 z "},"Ŀ":{"ha":928,"x_min":0,"x_max":0,"o":"m 186 895 l 186 0 l 911 0 l 911 31 l 219 31 l 219 895 z m 647 406 l 678 406 l 678 533 l 647 533 z "},"Ł":{"ha":928,"x_min":0,"x_max":0,"o":"m 61 376 l 75 347 l 186 397 l 186 0 l 911 0 l 911 31 l 219 31 l 219 412 l 483 531 l 469 559 l 219 447 l 219 895 l 186 895 l 186 432 z "},"Ŋ":{"ha":1228,"x_min":0,"x_max":0,"o":"m 795 -253 l 795 -286 l 797 -286 b 1042 -1 985 -286 1042 -162 l 1042 895 l 1008 895 l 1008 52 l 233 895 l 186 895 l 186 0 l 219 0 l 219 858 l 1008 0 b 795 -253 1008 -235 877 -253 z "},"Œ":{"ha":1591,"x_min":0,"x_max":0,"o":"m 125 438 b 626 0 125 143 297 0 l 1490 0 l 1490 31 l 814 31 l 814 435 l 1361 435 l 1361 466 l 814 466 l 814 865 l 1478 865 l 1478 895 l 623 895 b 125 438 256 895 125 724 z m 157 438 b 622 865 157 689 265 865 l 781 865 l 781 31 l 625 31 b 157 438 299 31 157 180 z "},"Ŧ":{"ha":982,"x_min":0,"x_max":0,"o":"m 258 453 l 258 423 l 463 423 l 463 0 l 496 0 l 496 423 l 705 423 l 705 453 l 496 453 l 496 865 l 951 865 l 951 895 l 31 895 l 31 865 l 463 865 l 463 453 z "},"Ω":{"ha":1242,"x_min":0,"x_max":0,"o":"m 117 0 l 443 0 l 443 49 b 188 447 291 108 188 267 b 621 876 188 724 391 876 b 1053 449 850 876 1053 724 b 799 49 1053 283 963 110 l 799 0 l 1125 0 l 1125 31 l 829 31 b 1086 447 974 90 1086 263 b 621 904 1086 738 870 904 b 156 447 372 904 156 738 b 413 31 156 260 265 89 l 117 31 z "},"a":{"ha":897,"x_min":0,"x_max":0,"o":"m 109 180 b 372 -8 109 26 247 -8 b 726 106 535 -8 668 62 l 731 0 l 756 0 l 756 443 b 478 688 756 593 679 688 b 184 624 345 688 249 653 l 195 594 b 478 658 246 619 347 658 b 726 438 629 658 726 601 l 726 406 b 587 409 676 408 630 409 b 109 180 231 409 109 327 z m 142 180 b 595 380 142 331 303 380 b 726 377 636 380 680 379 l 726 141 b 375 22 655 83 514 22 b 142 180 219 22 142 79 z "},"à":{"ha":897,"x_min":0,"x_max":0,"o":"m 109 180 b 372 -8 109 26 247 -8 b 726 106 535 -8 668 62 l 731 0 l 756 0 l 756 443 b 478 688 756 593 679 688 b 184 624 345 688 249 653 l 195 594 b 478 658 246 619 347 658 b 726 438 629 658 726 601 l 726 406 b 587 409 676 408 630 409 b 109 180 231 409 109 327 z m 142 180 b 595 380 142 331 303 380 b 726 377 636 380 680 379 l 726 141 b 375 22 655 83 514 22 b 142 180 219 22 142 79 z m 313 953 l 529 773 l 545 792 l 335 977 z "},"á":{"ha":897,"x_min":0,"x_max":0,"o":"m 109 180 b 372 -8 109 26 247 -8 b 726 106 535 -8 668 62 l 731 0 l 756 0 l 756 443 b 478 688 756 593 679 688 b 184 624 345 688 249 653 l 195 594 b 478 658 246 619 347 658 b 726 438 629 658 726 601 l 726 406 b 587 409 676 408 630 409 b 109 180 231 409 109 327 z m 142 180 b 595 380 142 331 303 380 b 726 377 636 380 680 379 l 726 141 b 375 22 655 83 514 22 b 142 180 219 22 142 79 z m 386 795 l 404 774 l 620 953 l 599 978 z "},"â":{"ha":897,"x_min":0,"x_max":0,"o":"m 109 180 b 372 -8 109 26 247 -8 b 726 106 535 -8 668 62 l 731 0 l 756 0 l 756 443 b 478 688 756 593 679 688 b 184 624 345 688 249 653 l 195 594 b 478 658 246 619 347 658 b 726 438 629 658 726 601 l 726 406 b 587 409 676 408 630 409 b 109 180 231 409 109 327 z m 142 180 b 595 380 142 331 303 380 b 726 377 636 380 680 379 l 726 141 b 375 22 655 83 514 22 b 142 180 219 22 142 79 z m 283 792 l 306 773 l 467 958 l 629 773 l 651 793 l 484 984 l 451 984 z "},"ã":{"ha":897,"x_min":0,"x_max":0,"o":"m 109 180 b 372 -8 109 26 247 -8 b 726 106 535 -8 668 62 l 731 0 l 756 0 l 756 443 b 478 688 756 593 679 688 b 184 624 345 688 249 653 l 195 594 b 478 658 246 619 347 658 b 726 438 629 658 726 601 l 726 406 b 587 409 676 408 630 409 b 109 180 231 409 109 327 z m 142 180 b 595 380 142 331 303 380 b 726 377 636 380 680 379 l 726 141 b 375 22 655 83 514 22 b 142 180 219 22 142 79 z m 239 794 l 265 781 b 365 851 290 832 324 851 b 467 814 401 851 434 831 b 571 782 498 798 538 782 b 697 872 621 782 666 806 l 669 885 b 569 814 644 833 610 814 b 468 851 532 814 502 835 b 367 883 437 866 401 883 b 239 794 316 883 267 859 z "},"ä":{"ha":897,"x_min":0,"x_max":0,"o":"m 109 180 b 372 -8 109 26 247 -8 b 726 106 535 -8 668 62 l 731 0 l 756 0 l 756 443 b 478 688 756 593 679 688 b 184 624 345 688 249 653 l 195 594 b 478 658 246 619 347 658 b 726 438 629 658 726 601 l 726 406 b 587 409 676 408 630 409 b 109 180 231 409 109 327 z m 142 180 b 595 380 142 331 303 380 b 726 377 636 380 680 379 l 726 141 b 375 22 655 83 514 22 b 142 180 219 22 142 79 z m 376 790 l 408 790 l 408 874 l 376 874 z m 528 790 l 561 790 l 561 874 l 528 874 z "},"å":{"ha":897,"x_min":0,"x_max":0,"o":"m 109 180 b 372 -8 109 26 247 -8 b 726 106 535 -8 668 62 l 731 0 l 756 0 l 756 443 b 478 688 756 593 679 688 b 184 624 345 688 249 653 l 195 594 b 478 658 246 619 347 658 b 726 438 629 658 726 601 l 726 406 b 587 409 676 408 630 409 b 109 180 231 409 109 327 z m 142 180 b 595 380 142 331 303 380 b 726 377 636 380 680 379 l 726 141 b 375 22 655 83 514 22 b 142 180 219 22 142 79 z m 355 868 b 476 760 355 806 399 760 b 599 868 551 760 599 806 b 476 975 599 929 550 975 b 355 868 403 975 355 929 z m 385 867 b 477 948 385 913 419 948 b 568 867 535 948 568 913 b 477 787 568 822 534 787 b 385 867 419 787 385 822 z "},"ā":{"ha":897,"x_min":0,"x_max":0,"o":"m 109 180 b 372 -8 109 26 247 -8 b 726 106 535 -8 668 62 l 731 0 l 756 0 l 756 443 b 478 688 756 593 679 688 b 184 624 345 688 249 653 l 195 594 b 478 658 246 619 347 658 b 726 438 629 658 726 601 l 726 406 b 587 409 676 408 630 409 b 109 180 231 409 109 327 z m 142 180 b 595 380 142 331 303 380 b 726 377 636 380 680 379 l 726 141 b 375 22 655 83 514 22 b 142 180 219 22 142 79 z m 292 790 l 664 790 l 664 822 l 292 822 z "},"ă":{"ha":897,"x_min":0,"x_max":0,"o":"m 109 180 b 372 -8 109 26 247 -8 b 726 106 535 -8 668 62 l 731 0 l 756 0 l 756 443 b 478 688 756 593 679 688 b 184 624 345 688 249 653 l 195 594 b 478 658 246 619 347 658 b 726 438 629 658 726 601 l 726 406 b 587 409 676 408 630 409 b 109 180 231 409 109 327 z m 142 180 b 595 380 142 331 303 380 b 726 377 636 380 680 379 l 726 141 b 375 22 655 83 514 22 b 142 180 219 22 142 79 z m 328 934 b 482 772 334 853 359 772 b 636 934 605 772 630 853 l 608 936 b 483 801 597 819 544 802 b 356 936 419 802 367 819 z "},"ą":{"ha":918,"x_min":0,"x_max":0,"o":"m 537 -165 b 676 -279 537 -244 588 -279 b 781 -262 723 -279 765 -267 l 772 -236 b 676 -251 749 -243 718 -251 b 567 -165 628 -251 567 -242 b 756 0 567 -103 631 -44 l 756 443 b 478 688 756 593 679 688 b 184 624 345 688 249 653 l 195 594 b 478 658 246 619 347 658 b 726 438 629 658 726 601 l 726 406 b 587 409 676 408 630 409 b 109 180 231 409 109 327 b 372 -8 109 26 247 -8 b 726 106 535 -8 668 62 l 730 17 b 537 -165 608 -28 537 -90 z m 142 180 b 595 380 142 331 303 380 b 726 377 636 380 680 379 l 726 141 b 375 22 655 83 514 22 b 142 180 219 22 142 79 z "},"ǻ":{"ha":897,"x_min":0,"x_max":0,"o":"m 381 1027 l 392 1001 l 628 1106 l 615 1136 z m 109 180 b 372 -8 109 26 247 -8 b 726 106 535 -8 668 62 l 731 0 l 756 0 l 756 443 b 478 688 756 593 679 688 b 184 624 345 688 249 653 l 195 594 b 478 658 246 619 347 658 b 726 438 629 658 726 601 l 726 406 b 587 409 676 408 630 409 b 109 180 231 409 109 327 z m 142 180 b 595 380 142 331 303 380 b 726 377 636 380 680 379 l 726 141 b 375 22 655 83 514 22 b 142 180 219 22 142 79 z m 350 859 b 472 751 350 797 394 751 b 594 859 546 751 594 797 b 472 966 594 920 545 966 b 350 859 399 966 350 920 z m 381 858 b 472 939 381 903 415 939 b 563 858 530 939 563 903 b 472 778 563 813 529 778 b 381 858 415 778 381 813 z "},"b":{"ha":956,"x_min":0,"x_max":0,"o":"m 185 83 b 500 -8 233 53 333 -8 b 848 329 720 -8 848 135 b 500 685 848 550 727 685 b 185 567 359 685 240 614 l 185 982 l 155 982 l 155 0 l 181 0 z m 185 118 l 185 528 b 501 655 237 577 357 655 b 815 329 667 655 815 568 b 499 22 815 126 673 22 b 185 118 396 22 293 44 z "},"c":{"ha":855,"x_min":0,"x_max":0,"o":"m 108 332 b 493 -8 108 119 263 -8 b 761 51 603 -8 681 17 l 749 80 b 494 22 682 51 601 22 b 141 333 285 22 141 136 b 505 655 141 547 303 655 b 744 613 573 655 650 644 l 754 644 b 508 685 685 665 597 685 b 108 332 281 685 108 565 z "},"ç":{"ha":855,"x_min":0,"x_max":0,"o":"m 108 332 b 452 -7 108 131 244 7 b 547 -148 515 -45 547 -92 b 428 -247 547 -235 453 -247 b 349 -235 390 -247 365 -240 l 341 -263 b 427 -277 350 -265 372 -277 b 581 -150 517 -277 581 -227 b 508 -8 581 -90 556 -45 b 761 51 610 -6 685 19 l 749 80 b 494 22 682 51 601 22 b 141 333 285 22 141 136 b 505 655 141 547 303 655 b 744 613 573 655 650 644 l 754 644 b 508 685 685 665 597 685 b 108 332 281 685 108 565 z "},"ć":{"ha":855,"x_min":0,"x_max":0,"o":"m 108 332 b 493 -8 108 119 263 -8 b 761 51 603 -8 681 17 l 749 80 b 494 22 682 51 601 22 b 141 333 285 22 141 136 b 505 655 141 547 303 655 b 744 613 573 655 650 644 l 754 644 b 508 685 685 665 597 685 b 108 332 281 685 108 565 z m 394 794 l 413 773 l 628 953 l 607 977 z "},"ĉ":{"ha":855,"x_min":0,"x_max":0,"o":"m 108 332 b 493 -8 108 119 263 -8 b 761 51 603 -8 681 17 l 749 80 b 494 22 682 51 601 22 b 141 333 285 22 141 136 b 505 655 141 547 303 655 b 744 613 573 655 650 644 l 754 644 b 508 685 685 665 597 685 b 108 332 281 685 108 565 z m 294 794 l 317 775 l 478 960 l 640 775 l 663 795 l 495 986 l 462 986 z "},"ċ":{"ha":855,"x_min":0,"x_max":0,"o":"m 472 874 l 472 790 l 504 790 l 504 874 z m 108 332 b 493 -8 108 119 263 -8 b 761 51 603 -8 681 17 l 749 80 b 494 22 682 51 601 22 b 141 333 285 22 141 136 b 505 655 141 547 303 655 b 744 613 573 655 650 644 l 754 644 b 508 685 685 665 597 685 b 108 332 281 685 108 565 z "},"č":{"ha":855,"x_min":0,"x_max":0,"o":"m 108 332 b 493 -8 108 119 263 -8 b 761 51 603 -8 681 17 l 749 80 b 494 22 682 51 601 22 b 141 333 285 22 141 136 b 505 655 141 547 303 655 b 744 613 573 655 650 644 l 754 644 b 508 685 685 665 597 685 b 108 332 281 685 108 565 z m 300 965 l 467 772 l 500 772 l 667 965 l 645 984 l 483 797 l 322 984 z "},"d":{"ha":956,"x_min":0,"x_max":0,"o":"m 108 333 b 447 -8 108 113 253 -8 b 772 103 630 -8 733 74 l 776 0 l 801 0 l 801 982 l 772 982 l 772 573 b 468 685 699 638 608 685 b 108 333 265 685 108 563 z m 141 333 b 467 655 141 547 287 655 b 772 532 581 655 693 615 l 772 140 b 447 22 722 99 615 22 b 141 333 274 22 141 134 z "},"ď":{"ha":1000,"x_min":0,"x_max":0,"o":"m 1006 986 l 962 769 l 988 763 l 1038 979 z m 108 333 b 447 -8 108 113 253 -8 b 772 103 630 -8 733 74 l 776 0 l 801 0 l 801 982 l 772 982 l 772 573 b 468 685 699 638 608 685 b 108 333 265 685 108 563 z m 141 333 b 467 655 141 547 287 655 b 772 532 581 655 693 615 l 772 140 b 447 22 722 99 615 22 b 141 333 274 22 141 134 z "},"e":{"ha":925,"x_min":0,"x_max":0,"o":"m 474 -9 b 810 101 611 -9 715 37 l 794 126 b 473 21 696 61 604 21 b 141 320 257 21 146 144 l 816 320 b 818 359 817 333 818 344 b 472 685 818 588 651 685 b 108 338 283 685 108 566 b 474 -9 108 111 253 -9 z m 140 349 b 473 655 140 543 292 655 b 786 361 636 655 786 567 l 786 349 z "},"è":{"ha":925,"x_min":0,"x_max":0,"o":"m 335 953 l 551 773 l 567 792 l 357 977 z m 108 338 b 474 -9 108 111 253 -9 b 810 101 611 -9 715 37 l 794 126 b 473 21 696 61 604 21 b 141 320 257 21 146 144 l 816 320 b 818 359 817 333 818 344 b 472 685 818 588 651 685 b 108 338 283 685 108 566 z m 140 349 b 473 655 140 543 292 655 b 786 361 636 655 786 567 l 786 349 z "},"é":{"ha":925,"x_min":0,"x_max":0,"o":"m 474 -9 b 810 101 611 -9 715 37 l 794 126 b 473 21 696 61 604 21 b 141 320 257 21 146 144 l 816 320 b 818 359 817 333 818 344 b 472 685 818 588 651 685 b 108 338 283 685 108 566 b 474 -9 108 111 253 -9 z m 140 349 b 473 655 140 543 292 655 b 786 361 636 655 786 567 l 786 349 z m 419 794 l 437 773 l 653 953 l 631 977 z "},"ê":{"ha":925,"x_min":0,"x_max":0,"o":"m 282 792 l 305 773 l 467 958 l 628 773 l 651 793 l 483 984 l 450 984 z m 108 338 b 474 -9 108 111 253 -9 b 810 101 611 -9 715 37 l 794 126 b 473 21 696 61 604 21 b 141 320 257 21 146 144 l 816 320 b 818 359 817 333 818 344 b 472 685 818 588 651 685 b 108 338 283 685 108 566 z m 140 349 b 473 655 140 543 292 655 b 786 361 636 655 786 567 l 786 349 z "},"ë":{"ha":925,"x_min":0,"x_max":0,"o":"m 385 876 l 385 792 l 417 792 l 417 876 z m 108 338 b 474 -9 108 111 253 -9 b 810 101 611 -9 715 37 l 794 126 b 473 21 696 61 604 21 b 141 320 257 21 146 144 l 816 320 b 818 359 817 333 818 344 b 472 685 818 588 651 685 b 108 338 283 685 108 566 z m 140 349 b 473 655 140 543 292 655 b 786 361 636 655 786 567 l 786 349 z m 538 792 l 570 792 l 570 876 l 538 876 z "},"ē":{"ha":925,"x_min":0,"x_max":0,"o":"m 474 -9 b 810 101 611 -9 715 37 l 794 126 b 473 21 696 61 604 21 b 141 320 257 21 146 144 l 816 320 b 818 359 817 333 818 344 b 472 685 818 588 651 685 b 108 338 283 685 108 566 b 474 -9 108 111 253 -9 z m 140 349 b 473 655 140 543 292 655 b 786 361 636 655 786 567 l 786 349 z m 284 790 l 656 790 l 656 822 l 284 822 z "},"ĕ":{"ha":925,"x_min":0,"x_max":0,"o":"m 474 -9 b 810 101 611 -9 715 37 l 794 126 b 473 21 696 61 604 21 b 141 320 257 21 146 144 l 816 320 b 818 359 817 333 818 344 b 472 685 818 588 651 685 b 108 338 283 685 108 566 b 474 -9 108 111 253 -9 z m 140 349 b 473 655 140 543 292 655 b 786 361 636 655 786 567 l 786 349 z m 315 935 b 469 773 321 854 346 773 b 623 935 592 773 617 854 l 594 937 b 469 802 584 820 531 803 b 343 937 406 803 353 820 z "},"ė":{"ha":925,"x_min":0,"x_max":0,"o":"m 453 874 l 453 790 l 486 790 l 486 874 z m 108 338 b 474 -9 108 111 253 -9 b 810 101 611 -9 715 37 l 794 126 b 473 21 696 61 604 21 b 141 320 257 21 146 144 l 816 320 b 818 359 817 333 818 344 b 472 685 818 588 651 685 b 108 338 283 685 108 566 z m 140 349 b 473 655 140 543 292 655 b 786 361 636 655 786 567 l 786 349 z "},"ę":{"ha":991,"x_min":0,"x_max":0,"o":"m 716 -278 b 803 -265 760 -278 792 -267 l 795 -235 b 716 -247 778 -240 751 -247 b 608 -152 675 -247 608 -232 b 765 73 608 -68 675 6 b 810 101 781 82 796 92 l 794 126 b 473 21 696 61 604 21 b 141 320 257 21 146 144 l 816 320 b 818 359 817 333 818 344 b 472 685 818 588 651 685 b 108 338 283 685 108 566 b 474 -9 108 111 253 -9 b 666 25 546 -9 609 3 b 576 -154 613 -26 576 -85 b 716 -278 576 -233 630 -278 z m 140 349 b 473 655 140 543 292 655 b 786 361 636 655 786 567 l 786 349 z "},"ě":{"ha":925,"x_min":0,"x_max":0,"o":"m 474 -9 b 810 101 611 -9 715 37 l 794 126 b 473 21 696 61 604 21 b 141 320 257 21 146 144 l 816 320 b 818 359 817 333 818 344 b 472 685 818 588 651 685 b 108 338 283 685 108 566 b 474 -9 108 111 253 -9 z m 140 349 b 473 655 140 543 292 655 b 786 361 636 655 786 567 l 786 349 z m 290 965 l 456 772 l 490 772 l 656 965 l 635 984 l 473 797 l 311 984 z "},"f":{"ha":639,"x_min":0,"x_max":0,"o":"m 224 646 l 224 0 l 253 0 l 253 646 l 638 646 l 638 674 l 253 674 l 253 787 b 461 955 253 925 340 955 b 667 932 569 955 631 940 l 673 961 b 460 985 637 969 568 985 b 224 790 313 985 224 936 l 224 674 l 85 674 l 85 646 z "},"g":{"ha":956,"x_min":0,"x_max":0,"o":"m 447 -290 b 801 22 647 -290 801 -199 l 801 674 l 776 674 l 772 573 b 468 685 699 638 608 685 b 108 337 265 685 108 563 b 447 0 108 119 253 0 b 772 111 630 0 733 83 l 772 25 b 447 -260 772 -241 532 -260 b 163 -194 326 -260 240 -232 l 150 -224 b 447 -290 209 -254 304 -290 z m 141 337 b 467 655 141 549 287 655 b 772 532 581 655 693 615 l 772 149 b 447 30 722 107 615 30 b 141 337 274 30 141 137 z "},"ĝ":{"ha":956,"x_min":0,"x_max":0,"o":"m 317 792 l 340 773 l 502 958 l 664 773 l 686 793 l 519 984 l 485 984 z m 108 337 b 447 0 108 119 253 0 b 772 111 630 0 733 83 l 772 25 b 447 -260 772 -241 532 -260 b 163 -194 326 -260 240 -232 l 150 -224 b 447 -290 209 -254 304 -290 b 801 22 647 -290 801 -199 l 801 674 l 776 674 l 772 573 b 468 685 699 638 608 685 b 108 337 265 685 108 563 z m 141 337 b 467 655 141 549 287 655 b 772 532 581 655 693 615 l 772 149 b 447 30 722 107 615 30 b 141 337 274 30 141 137 z "},"ğ":{"ha":956,"x_min":0,"x_max":0,"o":"m 447 -290 b 801 22 647 -290 801 -199 l 801 674 l 776 674 l 772 573 b 468 685 699 638 608 685 b 108 337 265 685 108 563 b 447 0 108 119 253 0 b 772 111 630 0 733 83 l 772 25 b 447 -260 772 -241 532 -260 b 163 -194 326 -260 240 -232 l 150 -224 b 447 -290 209 -254 304 -290 z m 141 337 b 467 655 141 549 287 655 b 772 532 581 655 693 615 l 772 149 b 447 30 722 107 615 30 b 141 337 274 30 141 137 z m 329 935 b 483 773 335 854 360 773 b 638 935 606 773 631 854 l 609 937 b 484 802 599 820 546 803 b 358 937 421 803 368 820 z "},"ġ":{"ha":956,"x_min":0,"x_max":0,"o":"m 454 874 l 454 790 l 487 790 l 487 874 z m 108 337 b 447 0 108 119 253 0 b 772 111 630 0 733 83 l 772 25 b 447 -260 772 -241 532 -260 b 163 -194 326 -260 240 -232 l 150 -224 b 447 -290 209 -254 304 -290 b 801 22 647 -290 801 -199 l 801 674 l 776 674 l 772 573 b 468 685 699 638 608 685 b 108 337 265 685 108 563 z m 141 337 b 467 655 141 549 287 655 b 772 532 581 655 693 615 l 772 149 b 447 30 722 107 615 30 b 141 337 274 30 141 137 z "},"ģ":{"ha":956,"x_min":0,"x_max":0,"o":"m 552 1052 l 527 1065 l 461 938 l 461 809 l 492 809 l 492 933 z m 108 337 b 447 0 108 119 253 0 b 772 111 630 0 733 83 l 772 25 b 447 -260 772 -241 532 -260 b 163 -194 326 -260 240 -232 l 150 -224 b 447 -290 209 -254 304 -290 b 801 22 647 -290 801 -199 l 801 674 l 776 674 l 772 573 b 468 685 699 638 608 685 b 108 337 265 685 108 563 z m 141 337 b 467 655 141 549 287 655 b 772 532 581 655 693 615 l 772 149 b 447 30 722 107 615 30 b 141 337 274 30 141 137 z "},"h":{"ha":935,"x_min":0,"x_max":0,"o":"m 155 982 l 155 0 l 185 0 l 185 546 b 537 656 210 564 345 656 b 766 421 680 656 766 589 l 766 0 l 796 0 l 796 432 b 534 686 796 630 669 686 b 185 581 353 686 222 607 l 185 982 z "},"ĥ":{"ha":935,"x_min":0,"x_max":0,"o":"m 277 1092 l 298 1071 l 492 1249 l 685 1071 l 706 1092 l 512 1273 l 472 1273 z m 155 0 l 185 0 l 185 546 b 537 656 210 564 345 656 b 766 421 680 656 766 589 l 766 0 l 796 0 l 796 432 b 534 686 796 630 669 686 b 185 581 353 686 222 607 l 185 982 l 155 982 z "},"i":{"ha":340,"x_min":0,"x_max":0,"o":"m 155 674 l 155 0 l 185 0 l 185 674 z m 155 790 l 185 790 l 185 876 l 155 876 z "},"ì":{"ha":340,"x_min":0,"x_max":0,"o":"m -37 952 l 178 772 l 194 791 l -16 976 z m 155 0 l 185 0 l 185 674 l 155 674 z "},"í":{"ha":340,"x_min":0,"x_max":0,"o":"m 155 674 l 155 0 l 185 0 l 185 674 z m 151 794 l 169 772 l 385 952 l 364 976 z "},"î":{"ha":340,"x_min":0,"x_max":0,"o":"m -8 792 l 15 773 l 176 958 l 338 773 l 360 793 l 193 984 l 160 984 z m 155 0 l 185 0 l 185 674 l 155 674 z "},"ï":{"ha":340,"x_min":0,"x_max":0,"o":"m 74 874 l 74 790 l 107 790 l 107 874 z m 155 0 l 185 0 l 185 674 l 155 674 z m 227 790 l 260 790 l 260 874 l 227 874 z "},"ĩ":{"ha":340,"x_min":0,"x_max":0,"o":"m 155 674 l 155 0 l 185 0 l 185 674 z m -56 794 l -30 781 b 70 851 -6 832 29 851 b 172 814 106 851 139 831 b 276 782 203 798 242 782 b 401 872 326 782 371 806 l 374 885 b 274 814 349 833 315 814 b 173 851 237 814 207 835 b 72 883 142 866 106 883 b -56 794 21 883 -28 859 z "},"ī":{"ha":340,"x_min":0,"x_max":0,"o":"m 155 674 l 155 0 l 185 0 l 185 674 z m -15 790 l 358 790 l 358 822 l -15 822 z "},"ĭ":{"ha":340,"x_min":0,"x_max":0,"o":"m 155 674 l 155 0 l 185 0 l 185 674 z m 17 935 b 171 773 23 854 48 773 b 325 935 294 773 319 854 l 297 937 b 172 802 286 820 233 803 b 45 937 108 803 56 820 z "},"į":{"ha":340,"x_min":0,"x_max":0,"o":"m 164 -278 b 258 -265 210 -278 247 -267 l 251 -235 b 164 -247 233 -240 197 -247 b 58 -153 103 -247 58 -214 b 185 0 58 -87 106 -47 l 185 674 l 155 674 l 155 16 b 25 -155 76 -31 25 -78 b 164 -278 25 -230 78 -278 z m 155 790 l 185 790 l 185 876 l 155 876 z "},"j":{"ha":419,"x_min":0,"x_max":0,"o":"m 47 -257 l 60 -286 b 264 8 208 -210 264 -147 l 264 674 l 234 674 l 234 2 b 47 -257 234 -133 178 -192 z m 234 791 l 264 791 l 264 877 l 234 877 z "},"ĵ":{"ha":383,"x_min":0,"x_max":0,"o":"m 44 792 l 67 772 l 228 957 l 390 772 l 413 792 l 245 983 l 212 983 z m 25 -260 l 38 -286 b 242 8 186 -209 242 -147 l 242 674 l 212 674 l 212 2 b 25 -260 212 -135 156 -194 z "},"k":{"ha":881,"x_min":0,"x_max":0,"o":"m 483 398 l 784 -9 l 808 9 l 508 419 l 788 658 l 768 681 l 185 181 l 185 982 l 156 982 l 156 0 l 185 0 l 185 142 z "},"ķ":{"ha":881,"x_min":0,"x_max":0,"o":"m 391 -349 l 416 -362 l 482 -235 l 482 -106 l 451 -106 l 451 -230 z m 156 0 l 185 0 l 185 142 l 483 398 l 784 -9 l 808 9 l 508 419 l 788 658 l 768 681 l 185 181 l 185 982 l 156 982 z "},"l":{"ha":340,"x_min":0,"x_max":0,"o":"m 155 982 l 155 0 l 185 0 l 185 982 z "},"ĺ":{"ha":340,"x_min":0,"x_max":0,"o":"m 145 1083 l 158 1058 l 419 1189 l 403 1219 z m 155 0 l 185 0 l 185 982 l 155 982 z "},"ļ":{"ha":340,"x_min":0,"x_max":0,"o":"m 94 -350 l 119 -363 l 185 -236 l 185 -107 l 154 -107 l 154 -231 z m 155 0 l 185 0 l 185 982 l 155 982 z "},"ľ":{"ha":373,"x_min":0,"x_max":0,"o":"m 379 986 l 335 769 l 361 763 l 411 979 z m 155 0 l 185 0 l 185 982 l 155 982 z "},"m":{"ha":1492,"x_min":0,"x_max":0,"o":"m 155 674 l 155 0 l 185 0 l 185 543 b 522 655 205 556 344 655 b 731 493 657 655 731 580 l 731 0 l 761 0 l 761 537 b 1114 655 799 565 933 655 b 1322 426 1253 655 1322 591 l 1322 0 l 1352 0 l 1352 435 b 1114 685 1352 626 1256 685 b 749 564 932 685 806 604 b 521 685 710 653 622 685 b 185 576 354 685 228 606 l 181 674 z "},"n":{"ha":970,"x_min":0,"x_max":0,"o":"m 155 674 l 155 0 l 185 0 l 185 543 b 551 656 204 558 342 656 b 801 426 712 656 801 586 l 801 0 l 831 0 l 831 438 b 548 685 831 631 701 685 b 185 576 343 685 208 593 l 181 674 z "},"ñ":{"ha":970,"x_min":0,"x_max":0,"o":"m 155 674 l 155 0 l 185 0 l 185 543 b 551 656 204 558 342 656 b 801 426 712 656 801 586 l 801 0 l 831 0 l 831 438 b 548 685 831 631 701 685 b 185 576 343 685 208 593 l 181 674 z m 272 794 l 299 781 b 399 851 323 832 358 851 b 501 814 435 851 467 831 b 604 782 531 798 571 782 b 730 872 654 782 699 806 l 703 885 b 603 814 678 833 644 814 b 501 851 565 814 535 835 b 401 883 470 866 434 883 b 272 794 349 883 301 859 z "},"ń":{"ha":970,"x_min":0,"x_max":0,"o":"m 413 794 l 431 773 l 647 953 l 626 977 z m 155 0 l 185 0 l 185 543 b 551 656 204 558 342 656 b 801 426 712 656 801 586 l 801 0 l 831 0 l 831 438 b 548 685 831 631 701 685 b 185 576 343 685 208 593 l 181 674 l 155 674 z "},"ņ":{"ha":970,"x_min":0,"x_max":0,"o":"m 428 -349 l 453 -362 l 519 -235 l 519 -106 l 489 -106 l 489 -230 z m 155 0 l 185 0 l 185 543 b 551 656 204 558 342 656 b 801 426 712 656 801 586 l 801 0 l 831 0 l 831 438 b 548 685 831 631 701 685 b 185 576 343 685 208 593 l 181 674 l 155 674 z "},"ň":{"ha":970,"x_min":0,"x_max":0,"o":"m 320 965 l 487 772 l 520 772 l 687 965 l 665 984 l 503 797 l 342 984 z m 155 0 l 185 0 l 185 543 b 551 656 204 558 342 656 b 801 426 712 656 801 586 l 801 0 l 831 0 l 831 438 b 548 685 831 631 701 685 b 185 576 343 685 208 593 l 181 674 l 155 674 z "},"o":{"ha":978,"x_min":0,"x_max":0,"o":"m 108 338 b 489 -8 108 115 285 -8 b 869 338 693 -8 869 115 b 489 685 869 561 693 685 b 108 338 285 685 108 561 z m 141 338 b 489 655 141 537 292 655 b 837 338 686 655 837 537 b 489 22 837 140 686 22 b 141 338 292 22 141 140 z "},"ò":{"ha":978,"x_min":0,"x_max":0,"o":"m 341 953 l 557 773 l 573 792 l 363 977 z m 108 338 b 489 -8 108 115 285 -8 b 869 338 693 -8 869 115 b 489 685 869 561 693 685 b 108 338 285 685 108 561 z m 141 338 b 489 655 141 537 292 655 b 837 338 686 655 837 537 b 489 22 837 140 686 22 b 141 338 292 22 141 140 z "},"ó":{"ha":978,"x_min":0,"x_max":0,"o":"m 432 794 l 450 772 l 666 952 l 644 976 z m 108 338 b 489 -8 108 115 285 -8 b 869 338 693 -8 869 115 b 489 685 869 561 693 685 b 108 338 285 685 108 561 z m 141 338 b 489 655 141 537 292 655 b 837 338 686 655 837 537 b 489 22 837 140 686 22 b 141 338 292 22 141 140 z "},"ô":{"ha":978,"x_min":0,"x_max":0,"o":"m 303 792 l 326 773 l 488 958 l 650 773 l 672 793 l 505 984 l 472 984 z m 108 338 b 489 -8 108 115 285 -8 b 869 338 693 -8 869 115 b 489 685 869 561 693 685 b 108 338 285 685 108 561 z m 141 338 b 489 655 141 537 292 655 b 837 338 686 655 837 537 b 489 22 837 140 686 22 b 141 338 292 22 141 140 z "},"õ":{"ha":978,"x_min":0,"x_max":0,"o":"m 108 338 b 489 -8 108 115 285 -8 b 869 338 693 -8 869 115 b 489 685 869 561 693 685 b 108 338 285 685 108 561 z m 141 338 b 489 655 141 537 292 655 b 837 338 686 655 837 537 b 489 22 837 140 686 22 b 141 338 292 22 141 140 z m 276 793 l 303 780 b 403 851 327 831 362 851 b 505 813 439 851 472 831 b 608 781 535 797 575 781 b 734 871 658 781 703 806 l 707 884 b 607 813 682 832 648 813 b 506 851 569 813 540 834 b 405 883 474 865 438 883 b 276 793 353 883 305 858 z "},"ö":{"ha":978,"x_min":0,"x_max":0,"o":"m 396 875 l 396 791 l 428 791 l 428 875 z m 108 338 b 489 -8 108 115 285 -8 b 869 338 693 -8 869 115 b 489 685 869 561 693 685 b 108 338 285 685 108 561 z m 141 338 b 489 655 141 537 292 655 b 837 338 686 655 837 537 b 489 22 837 140 686 22 b 141 338 292 22 141 140 z m 549 791 l 581 791 l 581 875 l 549 875 z "},"ō":{"ha":978,"x_min":0,"x_max":0,"o":"m 108 338 b 489 -8 108 115 285 -8 b 869 338 693 -8 869 115 b 489 685 869 561 693 685 b 108 338 285 685 108 561 z m 141 338 b 489 655 141 537 292 655 b 837 338 686 655 837 537 b 489 22 837 140 686 22 b 141 338 292 22 141 140 z m 303 790 l 675 790 l 675 822 l 303 822 z "},"ŏ":{"ha":978,"x_min":0,"x_max":0,"o":"m 108 338 b 489 -8 108 115 285 -8 b 869 338 693 -8 869 115 b 489 685 869 561 693 685 b 108 338 285 685 108 561 z m 141 338 b 489 655 141 537 292 655 b 837 338 686 655 837 537 b 489 22 837 140 686 22 b 141 338 292 22 141 140 z m 335 935 b 490 773 342 854 367 773 b 644 935 613 773 638 854 l 615 937 b 490 802 605 820 552 803 b 364 937 427 803 374 820 z "},"ő":{"ha":978,"x_min":0,"x_max":0,"o":"m 346 790 l 365 772 l 534 955 l 509 976 z m 108 338 b 489 -8 108 115 285 -8 b 869 338 693 -8 869 115 b 489 685 869 561 693 685 b 108 338 285 685 108 561 z m 141 338 b 489 655 141 537 292 655 b 837 338 686 655 837 537 b 489 22 837 140 686 22 b 141 338 292 22 141 140 z m 593 790 l 612 772 l 781 955 l 756 976 z "},"p":{"ha":956,"x_min":0,"x_max":0,"o":"m 155 674 l 155 -274 l 185 -274 l 185 83 b 500 -8 233 53 333 -8 b 848 329 720 -8 848 135 b 500 685 848 550 727 685 b 185 567 359 685 240 614 l 181 674 z m 185 118 l 185 529 b 501 655 237 577 357 655 b 815 329 667 655 815 568 b 499 22 815 126 673 22 b 185 118 396 22 293 44 z "},"q":{"ha":956,"x_min":0,"x_max":0,"o":"m 772 103 l 772 -274 l 801 -274 l 801 674 l 775 674 l 772 573 b 468 685 699 638 608 685 b 108 333 265 685 108 563 b 447 -8 108 113 253 -8 b 772 103 630 -8 733 74 z m 141 333 b 467 655 141 547 287 655 b 772 532 581 655 693 615 l 772 140 b 447 22 722 99 615 22 b 141 333 274 22 141 135 z "},"r":{"ha":563,"x_min":0,"x_max":0,"o":"m 155 0 l 185 0 l 185 520 b 546 657 335 615 408 647 l 544 688 b 185 551 410 681 315 641 l 181 674 l 155 674 z "},"ŕ":{"ha":563,"x_min":0,"x_max":0,"o":"m 155 0 l 185 0 l 185 520 b 546 657 335 615 408 647 l 544 688 b 185 551 410 681 315 641 l 181 674 l 155 674 z m 255 795 l 273 774 l 489 953 l 467 978 z "},"ŗ":{"ha":563,"x_min":0,"x_max":0,"o":"m 94 -350 l 119 -363 l 185 -236 l 185 -107 l 154 -107 l 154 -231 z m 155 0 l 185 0 l 185 520 b 546 657 335 615 408 647 l 544 688 b 185 551 410 681 315 641 l 181 674 l 155 674 z "},"ř":{"ha":563,"x_min":0,"x_max":0,"o":"m 155 0 l 185 0 l 185 520 b 546 657 335 615 408 647 l 544 688 b 185 551 410 681 315 641 l 181 674 l 155 674 z m 156 965 l 323 773 l 356 773 l 523 965 l 501 985 l 340 798 l 178 985 z "},"s":{"ha":847,"x_min":0,"x_max":0,"o":"m 102 79 l 90 49 b 419 -8 133 28 249 -8 b 749 185 626 -8 749 56 b 452 365 749 340 601 356 b 146 501 300 373 146 372 b 420 658 146 624 289 658 b 687 616 530 658 619 637 l 698 646 b 422 688 631 667 528 688 b 115 500 303 688 115 660 b 440 333 115 344 282 341 b 719 186 583 326 719 315 b 420 22 719 87 627 22 b 102 79 256 22 153 56 z "},"ś":{"ha":847,"x_min":0,"x_max":0,"o":"m 102 79 l 90 49 b 419 -8 133 28 249 -8 b 749 185 626 -8 749 56 b 452 365 749 340 601 356 b 146 501 300 373 146 372 b 420 658 146 624 289 658 b 687 616 530 658 619 637 l 698 646 b 422 688 631 667 528 688 b 115 500 303 688 115 660 b 440 333 115 344 282 341 b 719 186 583 326 719 315 b 420 22 719 87 627 22 b 102 79 256 22 153 56 z m 331 794 l 349 772 l 565 952 l 544 976 z "},"ŝ":{"ha":847,"x_min":0,"x_max":0,"o":"m 102 79 l 90 49 b 419 -8 133 28 249 -8 b 749 185 626 -8 749 56 b 452 365 749 340 601 356 b 146 501 300 373 146 372 b 420 658 146 624 289 658 b 687 616 530 658 619 637 l 698 646 b 422 688 631 667 528 688 b 115 500 303 688 115 660 b 440 333 115 344 282 341 b 719 186 583 326 719 315 b 420 22 719 87 627 22 b 102 79 256 22 153 56 z m 234 790 l 257 770 l 419 955 l 581 770 l 603 790 l 435 981 l 402 981 z "},"ş":{"ha":847,"x_min":0,"x_max":0,"o":"m 102 79 l 90 49 b 415 -8 133 28 247 -8 b 506 -147 476 -47 506 -92 b 387 -246 506 -235 413 -246 b 308 -234 349 -246 324 -239 l 300 -262 b 386 -276 309 -265 331 -276 b 540 -149 476 -276 540 -226 b 467 -7 540 -90 515 -44 b 749 185 645 2 749 66 b 452 365 749 340 601 356 b 146 501 300 373 146 372 b 420 658 146 624 289 658 b 687 616 530 658 619 637 l 698 646 b 422 688 631 667 528 688 b 115 500 303 688 115 660 b 440 333 115 344 282 341 b 719 186 583 326 719 315 b 420 22 719 87 627 22 b 102 79 256 22 153 56 z "},"š":{"ha":847,"x_min":0,"x_max":0,"o":"m 102 79 l 90 49 b 419 -8 133 28 249 -8 b 749 185 626 -8 749 56 b 452 365 749 340 601 356 b 146 501 300 373 146 372 b 420 658 146 624 289 658 b 687 616 530 658 619 637 l 698 646 b 422 688 631 667 528 688 b 115 500 303 688 115 660 b 440 333 115 344 282 341 b 719 186 583 326 719 315 b 420 22 719 87 627 22 b 102 79 256 22 153 56 z m 249 966 l 415 774 l 449 774 l 615 966 l 594 985 l 432 799 l 270 985 z "},"ș":{"ha":847,"x_min":0,"x_max":0,"o":"m 351 -350 l 376 -363 l 442 -236 l 442 -107 l 411 -107 l 411 -231 z m 90 49 b 419 -8 133 28 249 -8 b 749 185 626 -8 749 56 b 452 365 749 340 601 356 b 146 501 300 373 146 372 b 420 658 146 624 289 658 b 687 616 530 658 619 637 l 698 646 b 422 688 631 667 528 688 b 115 500 303 688 115 660 b 440 333 115 344 282 341 b 719 186 583 326 719 315 b 420 22 719 87 627 22 b 102 79 256 22 153 56 z "},"t":{"ha":693,"x_min":0,"x_max":0,"o":"m 231 153 b 447 -8 231 20 312 -8 b 626 16 512 -8 581 4 l 619 45 b 446 22 581 35 503 22 b 260 156 338 22 260 41 l 260 646 l 611 646 l 611 674 l 260 674 l 260 856 l 231 856 l 231 674 l 78 674 l 78 646 l 231 646 z "},"ţ":{"ha":693,"x_min":0,"x_max":0,"o":"m 299 -362 l 324 -375 l 390 -248 l 390 -119 l 360 -119 l 360 -242 z m 78 646 l 231 646 l 231 153 b 447 -8 231 20 312 -8 b 626 16 512 -8 581 4 l 619 45 b 446 22 581 35 503 22 b 260 156 338 22 260 41 l 260 646 l 611 646 l 611 674 l 260 674 l 260 856 l 231 856 l 231 674 l 78 674 z "},"ť":{"ha":693,"x_min":0,"x_max":0,"o":"m 457 1067 l 413 850 l 439 844 l 489 1060 z m 78 646 l 231 646 l 231 153 b 447 -8 231 20 312 -8 b 626 16 512 -8 581 4 l 619 45 b 446 22 581 35 503 22 b 260 156 338 22 260 41 l 260 646 l 611 646 l 611 674 l 260 674 l 260 856 l 231 856 l 231 674 l 78 674 z "},"ț":{"ha":693,"x_min":0,"x_max":0,"o":"m 331 -349 l 356 -362 l 422 -235 l 422 -106 l 392 -106 l 392 -230 z m 78 646 l 231 646 l 231 153 b 447 -8 231 20 312 -8 b 626 16 512 -8 581 4 l 619 45 b 446 22 581 35 503 22 b 260 156 338 22 260 41 l 260 646 l 611 646 l 611 674 l 260 674 l 260 856 l 231 856 l 231 674 l 78 674 z "},"u":{"ha":985,"x_min":0,"x_max":0,"o":"m 140 292 b 432 -8 140 45 246 -8 b 801 96 617 -8 760 69 l 805 0 l 831 0 l 831 674 l 801 674 l 801 134 b 433 22 772 113 635 22 b 169 303 261 22 169 72 l 169 674 l 140 674 z "},"ù":{"ha":985,"x_min":0,"x_max":0,"o":"m 328 952 l 544 772 l 560 791 l 349 976 z m 140 292 b 432 -8 140 45 246 -8 b 801 96 617 -8 760 69 l 805 0 l 831 0 l 831 674 l 801 674 l 801 134 b 433 22 772 113 635 22 b 169 303 261 22 169 72 l 169 674 l 140 674 z "},"ú":{"ha":985,"x_min":0,"x_max":0,"o":"m 140 292 b 432 -8 140 45 246 -8 b 801 96 617 -8 760 69 l 805 0 l 831 0 l 831 674 l 801 674 l 801 134 b 433 22 772 113 635 22 b 169 303 261 22 169 72 l 169 674 l 140 674 z m 445 794 l 463 773 l 679 953 l 658 977 z "},"û":{"ha":985,"x_min":0,"x_max":0,"o":"m 317 793 l 340 774 l 501 958 l 663 774 l 685 794 l 518 985 l 485 985 z m 140 292 b 432 -8 140 45 246 -8 b 801 96 617 -8 760 69 l 805 0 l 831 0 l 831 674 l 801 674 l 801 134 b 433 22 772 113 635 22 b 169 303 261 22 169 72 l 169 674 l 140 674 z "},"ü":{"ha":985,"x_min":0,"x_max":0,"o":"m 399 874 l 399 790 l 432 790 l 432 874 z m 140 292 b 432 -8 140 45 246 -8 b 801 96 617 -8 760 69 l 805 0 l 831 0 l 831 674 l 801 674 l 801 134 b 433 22 772 113 635 22 b 169 303 261 22 169 72 l 169 674 l 140 674 z m 552 790 l 585 790 l 585 874 l 552 874 z "},"ũ":{"ha":985,"x_min":0,"x_max":0,"o":"m 140 292 b 432 -8 140 45 246 -8 b 801 96 617 -8 760 69 l 805 0 l 831 0 l 831 674 l 801 674 l 801 134 b 433 22 772 113 635 22 b 169 303 261 22 169 72 l 169 674 l 140 674 z m 274 794 l 301 781 b 401 851 325 832 360 851 b 503 814 437 851 469 831 b 606 782 533 798 573 782 b 732 872 656 782 701 806 l 705 885 b 605 814 680 833 646 814 b 503 851 567 814 538 835 b 403 883 472 866 436 883 b 274 794 351 883 303 859 z "},"ū":{"ha":985,"x_min":0,"x_max":0,"o":"m 140 292 b 432 -8 140 45 246 -8 b 801 96 617 -8 760 69 l 805 0 l 831 0 l 831 674 l 801 674 l 801 134 b 433 22 772 113 635 22 b 169 303 261 22 169 72 l 169 674 l 140 674 z m 305 790 l 677 790 l 677 822 l 305 822 z "},"ŭ":{"ha":985,"x_min":0,"x_max":0,"o":"m 140 292 b 432 -8 140 45 246 -8 b 801 96 617 -8 760 69 l 805 0 l 831 0 l 831 674 l 801 674 l 801 134 b 433 22 772 113 635 22 b 169 303 261 22 169 72 l 169 674 l 140 674 z m 339 935 b 493 773 345 854 370 773 b 647 935 616 773 641 854 l 619 937 b 494 802 608 820 556 803 b 367 937 431 803 378 820 z "},"ů":{"ha":985,"x_min":0,"x_max":0,"o":"m 140 292 b 432 -8 140 45 246 -8 b 801 96 617 -8 760 69 l 805 0 l 831 0 l 831 674 l 801 674 l 801 134 b 433 22 772 113 635 22 b 169 303 261 22 169 72 l 169 674 l 140 674 z m 374 868 b 495 760 374 806 417 760 b 617 868 569 760 617 806 b 495 975 617 929 569 975 b 374 868 422 975 374 929 z m 404 867 b 496 948 404 913 438 948 b 587 867 553 948 587 913 b 496 787 587 822 553 787 b 404 867 438 787 404 822 z "},"ű":{"ha":985,"x_min":0,"x_max":0,"o":"m 140 292 b 432 -8 140 45 246 -8 b 801 96 617 -8 760 69 l 805 0 l 831 0 l 831 674 l 801 674 l 801 134 b 433 22 772 113 635 22 b 169 303 261 22 169 72 l 169 674 l 140 674 z m 322 792 l 340 774 l 510 957 l 485 978 z m 569 792 l 588 774 l 757 957 l 732 978 z "},"ų":{"ha":985,"x_min":0,"x_max":0,"o":"m 615 -153 b 754 -278 615 -226 662 -278 b 856 -256 777 -278 821 -275 l 844 -231 b 757 -251 818 -244 789 -251 b 644 -153 717 -251 644 -237 b 831 0 644 -83 698 -31 l 831 674 l 801 674 l 801 134 b 433 22 772 113 635 22 b 169 303 261 22 169 72 l 169 674 l 140 674 l 140 292 b 432 -8 140 45 246 -8 b 801 96 617 -8 760 69 l 804 21 b 615 -153 669 -17 615 -74 z "},"v":{"ha":777,"x_min":0,"x_max":0,"o":"m 28 667 l 368 0 l 408 0 l 749 667 l 721 681 l 389 29 l 56 681 z "},"w":{"ha":1245,"x_min":0,"x_max":0,"o":"m 49 669 l 333 0 l 372 0 l 620 642 l 872 0 l 913 0 l 1197 669 l 1169 681 l 893 33 l 641 674 l 598 674 l 352 33 l 77 681 z "},"ŵ":{"ha":1245,"x_min":0,"x_max":0,"o":"m 434 793 l 457 774 l 619 958 l 781 774 l 803 794 l 635 985 l 602 985 z m 49 669 l 333 0 l 372 0 l 620 642 l 872 0 l 913 0 l 1197 669 l 1169 681 l 893 33 l 641 674 l 598 674 l 352 33 l 77 681 z "},"ẁ":{"ha":1245,"x_min":0,"x_max":0,"o":"m 416 952 l 632 772 l 648 791 l 438 976 z m 49 669 l 333 0 l 372 0 l 620 642 l 872 0 l 913 0 l 1197 669 l 1169 681 l 893 33 l 641 674 l 598 674 l 352 33 l 77 681 z "},"ẃ":{"ha":1245,"x_min":0,"x_max":0,"o":"m 599 794 l 617 773 l 833 953 l 812 977 z m 49 669 l 333 0 l 372 0 l 620 642 l 872 0 l 913 0 l 1197 669 l 1169 681 l 893 33 l 641 674 l 598 674 l 352 33 l 77 681 z "},"ẅ":{"ha":1245,"x_min":0,"x_max":0,"o":"m 526 874 l 526 790 l 558 790 l 558 874 z m 49 669 l 333 0 l 372 0 l 620 642 l 872 0 l 913 0 l 1197 669 l 1169 681 l 893 33 l 641 674 l 598 674 l 352 33 l 77 681 z m 678 790 l 711 790 l 711 874 l 678 874 z "},"x":{"ha":817,"x_min":0,"x_max":0,"o":"m 50 18 l 72 -6 l 412 337 l 751 -8 l 773 16 l 433 360 l 733 662 l 711 685 l 412 383 l 115 685 l 93 662 l 390 360 z "},"y":{"ha":801,"x_min":0,"x_max":0,"o":"m 287 -287 l 778 669 l 751 684 l 417 35 l 80 684 l 52 669 l 400 1 l 259 -272 z "},"ý":{"ha":801,"x_min":0,"x_max":0,"o":"m 287 -287 l 778 669 l 751 684 l 417 35 l 80 684 l 52 669 l 400 1 l 259 -272 z m 347 795 l 365 774 l 581 953 l 560 978 z "},"ÿ":{"ha":801,"x_min":0,"x_max":0,"o":"m 288 -285 l 779 671 l 751 685 l 418 37 l 81 685 l 53 670 l 401 3 l 260 -271 z m 334 791 l 367 791 l 367 875 l 334 875 z m 487 791 l 519 791 l 519 875 l 487 875 z "},"ŷ":{"ha":801,"x_min":0,"x_max":0,"o":"m 287 -287 l 778 669 l 751 684 l 417 35 l 80 684 l 52 669 l 400 1 l 259 -272 z m 244 794 l 267 774 l 429 959 l 591 774 l 613 794 l 446 985 l 413 985 z "},"z":{"ha":838,"x_min":0,"x_max":0,"o":"m 86 28 l 86 0 l 768 0 l 768 28 l 126 28 l 735 646 l 735 674 l 116 674 l 116 646 l 697 646 z "},"ź":{"ha":838,"x_min":0,"x_max":0,"o":"m 86 28 l 86 0 l 768 0 l 768 28 l 126 28 l 735 646 l 735 674 l 116 674 l 116 646 l 697 646 z m 351 795 l 369 774 l 585 953 l 564 978 z "},"ż":{"ha":838,"x_min":0,"x_max":0,"o":"m 414 874 l 414 790 l 447 790 l 447 874 z m 86 0 l 768 0 l 768 28 l 126 28 l 735 646 l 735 674 l 116 674 l 116 646 l 697 646 l 86 28 z "},"ž":{"ha":838,"x_min":0,"x_max":0,"o":"m 86 28 l 86 0 l 768 0 l 768 28 l 126 28 l 735 646 l 735 674 l 116 674 l 116 646 l 697 646 z m 252 965 l 419 773 l 452 773 l 619 965 l 597 985 l 435 798 l 274 985 z "},"ª":{"ha":619,"x_min":0,"x_max":0,"o":"m 94 560 b 242 449 94 481 157 449 b 469 511 330 449 414 485 l 473 456 l 499 456 l 499 687 b 312 847 499 793 442 847 b 135 817 258 847 194 837 l 143 791 b 313 819 174 802 235 819 b 467 693 422 819 461 783 b 421 694 451 693 435 694 b 94 560 185 694 94 651 z m 124 561 b 408 667 124 629 211 667 b 469 666 427 667 448 667 l 469 540 b 244 475 405 504 320 475 b 124 561 176 475 124 499 z "},"º":{"ha":650,"x_min":0,"x_max":0,"o":"m 83 652 b 325 446 83 516 200 446 b 567 652 450 446 567 516 b 325 856 567 785 450 856 b 83 652 200 856 83 785 z m 114 651 b 326 830 114 763 212 830 b 536 651 438 830 536 763 b 326 472 536 539 438 472 b 114 651 212 472 114 539 z "},"ß":{"ha":867,"x_min":0,"x_max":0,"o":"m 516 -8 b 782 244 661 -8 782 74 b 585 500 782 418 677 481 b 724 710 648 524 724 592 b 449 953 724 879 601 953 b 155 709 285 953 155 871 l 155 0 l 185 0 l 185 696 b 449 923 185 855 292 923 b 692 710 590 923 692 858 b 483 508 692 572 574 508 l 390 508 l 390 478 l 498 478 b 749 243 664 478 749 395 b 519 22 749 131 682 22 b 314 57 427 22 369 35 l 303 28 b 516 -8 350 9 419 -8 z "},"æ":{"ha":1398,"x_min":0,"x_max":0,"o":"m 998 -8 b 1284 87 1115 -8 1213 24 l 1265 108 b 997 20 1193 43 1103 20 b 710 320 871 20 721 82 l 1281 320 b 1283 378 1282 334 1283 365 b 994 685 1283 574 1171 685 b 704 490 823 685 740 590 b 460 685 683 606 610 685 b 192 624 338 685 253 653 l 205 597 b 461 655 250 620 338 655 b 683 408 599 655 681 575 b 563 411 640 410 601 411 b 129 185 249 411 129 328 b 382 -8 129 22 269 -8 b 735 123 528 -8 658 62 b 998 -8 786 42 873 -8 z m 161 184 b 553 383 161 298 257 383 b 681 378 592 383 635 381 b 679 344 680 367 679 355 b 721 148 679 271 693 203 b 384 20 643 83 505 20 b 161 184 238 20 161 75 z m 710 348 b 994 657 710 524 803 657 b 1255 381 1191 657 1255 515 b 1253 348 1255 370 1254 359 z "},"ǽ":{"ha":1398,"x_min":0,"x_max":0,"o":"m 998 -8 b 1284 87 1115 -8 1213 24 l 1265 108 b 997 20 1193 43 1103 20 b 710 320 871 20 721 82 l 1281 320 b 1283 378 1282 334 1283 365 b 994 685 1283 574 1171 685 b 704 490 823 685 740 590 b 460 685 683 606 610 685 b 192 624 338 685 253 653 l 205 597 b 461 655 250 620 338 655 b 683 408 599 655 681 575 b 563 411 640 410 601 411 b 129 185 249 411 129 328 b 382 -8 129 22 269 -8 b 735 123 528 -8 658 62 b 998 -8 786 42 873 -8 z m 161 184 b 553 383 161 298 257 383 b 681 378 592 383 635 381 b 679 344 680 367 679 355 b 721 148 679 271 693 203 b 384 20 643 83 505 20 b 161 184 238 20 161 75 z m 678 797 l 697 775 l 913 955 l 891 979 z m 710 348 b 994 657 710 524 803 657 b 1255 381 1191 657 1255 515 b 1253 348 1255 370 1254 359 z "},"ð":{"ha":983,"x_min":0,"x_max":0,"o":"m 471 -13 b 885 412 720 -13 885 150 b 651 908 885 489 872 777 l 708 1006 l 683 1019 l 626 921 b 310 960 524 969 400 970 l 314 931 b 610 894 410 941 511 940 l 528 757 l 553 743 l 635 881 b 852 478 787 795 840 620 b 473 661 810 535 686 661 b 97 325 233 661 97 506 b 471 -13 97 96 291 -13 z m 128 324 b 474 631 128 509 271 631 b 857 424 633 631 769 552 b 474 17 857 154 687 17 b 128 324 285 17 128 131 z "},"ø":{"ha":976,"x_min":0,"x_max":0,"o":"m 74 14 l 93 -8 l 212 90 b 488 -8 282 26 381 -8 b 869 338 692 -8 869 115 b 785 566 869 433 837 509 l 901 663 l 883 685 l 765 587 b 488 685 694 651 595 685 b 108 338 284 685 108 561 b 191 111 108 244 139 168 z m 140 338 b 488 655 140 537 291 655 b 741 567 589 655 678 624 l 215 131 b 140 338 168 183 140 253 z m 235 110 l 761 547 b 836 338 808 494 836 424 b 488 22 836 140 685 22 b 235 110 387 22 298 53 z "},"ǿ":{"ha":977,"x_min":0,"x_max":0,"o":"m 74 14 l 93 -8 l 212 90 b 489 -8 283 26 382 -8 b 869 338 693 -8 869 115 b 785 567 869 433 838 510 l 901 663 l 883 685 l 765 587 b 489 685 694 651 596 685 b 108 338 285 685 108 561 b 191 111 108 244 140 168 z m 141 338 b 489 655 141 537 292 655 b 741 567 590 655 678 624 l 215 131 b 141 338 168 183 141 253 z m 235 110 l 762 547 b 837 338 809 494 837 424 b 489 22 837 140 686 22 b 235 110 388 22 299 53 z m 413 794 l 431 773 l 647 953 l 625 977 z "},"þ":{"ha":956,"x_min":0,"x_max":0,"o":"m 155 -274 l 185 -274 l 185 99 b 508 -8 227 67 349 -8 b 848 342 717 -8 848 119 b 508 690 848 563 717 690 b 185 581 349 690 227 613 l 185 982 l 155 982 z m 185 138 l 185 541 b 507 659 237 588 356 659 b 815 341 688 659 815 549 b 507 23 815 133 688 23 b 185 138 357 23 237 90 z "},"đ":{"ha":956,"x_min":0,"x_max":0,"o":"m 602 837 l 602 808 l 772 808 l 772 573 b 468 685 699 638 608 685 b 108 333 265 685 108 563 b 447 -8 108 113 253 -8 b 772 103 630 -8 733 74 l 776 0 l 801 0 l 801 808 l 932 808 l 932 837 l 801 837 l 801 982 l 772 982 l 772 837 z m 141 333 b 467 655 141 547 287 655 b 772 532 581 655 693 615 l 772 140 b 447 22 722 99 615 22 b 141 333 274 22 141 134 z "},"ħ":{"ha":935,"x_min":0,"x_max":0,"o":"m 87 849 l 87 821 l 155 821 l 155 0 l 185 0 l 185 546 b 537 656 210 564 345 656 b 766 421 680 656 766 589 l 766 0 l 796 0 l 796 432 b 534 686 796 630 669 686 b 185 581 353 686 222 607 l 185 821 l 416 821 l 416 849 l 185 849 l 185 982 l 155 982 l 155 849 z "},"ı":{"ha":340,"x_min":0,"x_max":0,"o":"m 155 674 l 155 0 l 185 0 l 185 674 z "},"ĳ":{"ha":856,"x_min":0,"x_max":0,"o":"m 243 674 l 243 0 l 273 0 l 273 674 z m 243 790 l 273 790 l 273 876 l 243 876 z m 484 -257 l 497 -286 b 701 8 645 -210 701 -147 l 701 674 l 671 674 l 671 2 b 484 -257 671 -133 615 -192 z m 671 791 l 701 791 l 701 877 l 671 877 z "},"ĸ":{"ha":873,"x_min":0,"x_max":0,"o":"m 484 406 l 776 -8 l 801 10 l 508 424 l 792 650 l 774 672 l 185 206 l 185 674 l 155 674 l 155 0 l 185 0 l 185 168 z "},"ŀ":{"ha":340,"x_min":0,"x_max":0,"o":"m 155 982 l 155 0 l 185 0 l 185 982 z m 321 435 l 353 435 l 353 562 l 321 562 z "},"ł":{"ha":340,"x_min":0,"x_max":0,"o":"m 25 378 l 36 352 l 155 408 l 155 0 l 185 0 l 185 422 l 342 496 l 330 522 l 185 453 l 185 982 l 155 982 l 155 440 z "},"ŉ":{"ha":970,"x_min":0,"x_max":0,"o":"m -44 733 l -19 719 l 47 847 l 47 976 l 16 976 l 16 852 z m 155 0 l 185 0 l 185 543 b 551 656 204 558 342 656 b 801 426 712 656 801 586 l 801 0 l 831 0 l 831 438 b 548 685 831 631 701 685 b 185 576 343 685 208 593 l 181 674 l 155 674 z "},"ŋ":{"ha":970,"x_min":0,"x_max":0,"o":"m 614 -257 l 627 -286 b 831 8 775 -210 831 -149 l 831 438 b 555 685 831 631 701 685 b 185 576 346 685 226 602 l 181 674 l 155 674 l 155 0 l 185 0 l 185 542 b 558 655 204 557 342 655 b 801 426 712 655 801 586 l 801 2 b 614 -257 801 -131 744 -192 z "},"œ":{"ha":1449,"x_min":0,"x_max":0,"o":"m 435 -9 b 744 221 573 -9 700 74 b 1063 -9 781 73 897 -9 b 1328 90 1179 -9 1258 27 l 1309 113 b 1063 22 1237 53 1170 22 b 760 319 881 22 760 142 l 1332 319 b 1335 361 1333 333 1335 347 b 1042 685 1335 585 1228 685 b 744 460 919 685 788 614 b 435 686 703 606 582 686 b 108 338 251 686 108 557 b 435 -9 108 112 269 -9 z m 138 338 b 435 656 138 545 281 656 b 731 331 588 656 731 553 b 434 22 731 144 595 22 b 138 338 277 22 138 139 z m 760 348 b 1042 656 761 569 914 656 b 1304 377 1203 656 1304 571 b 1303 348 1304 367 1304 358 z "},"ŧ":{"ha":693,"x_min":0,"x_max":0,"o":"m 611 351 l 611 380 l 260 380 l 260 646 l 611 646 l 611 674 l 260 674 l 260 856 l 231 856 l 231 674 l 78 674 l 78 646 l 231 646 l 231 380 l 78 380 l 78 351 l 231 351 l 231 153 b 447 -8 231 20 312 -8 b 626 16 512 -8 581 4 l 619 45 b 446 22 581 35 503 22 b 260 156 338 22 260 41 l 260 351 z "},"ſ":{"ha":639,"x_min":0,"x_max":0,"o":"m 224 646 l 224 0 l 253 0 l 253 788 b 461 956 253 927 340 956 b 667 933 569 956 631 940 l 673 960 b 460 984 637 968 568 984 b 224 790 313 984 224 933 l 224 674 l 85 674 l 85 646 z "},"ȷ":{"ha":383,"x_min":0,"x_max":0,"o":"m 11 -260 l 24 -286 b 228 8 172 -209 228 -147 l 228 674 l 198 674 l 198 2 b 11 -260 198 -135 142 -194 z "},"π":{"ha":1099,"x_min":0,"x_max":0,"o":"m 749 152 b 907 -8 749 28 797 -8 b 1033 13 956 -8 1017 7 l 1022 42 b 910 22 1003 34 952 22 b 782 156 839 22 782 31 l 782 647 l 1006 647 l 1006 674 l 78 674 l 78 647 l 278 647 l 278 -1 l 312 -1 l 312 647 l 749 647 z "},"¼":{"ha":1622,"x_min":0,"x_max":0,"o":"m 166 458 l 166 429 l 605 429 l 605 458 l 402 458 l 402 894 l 373 894 l 210 855 l 217 827 l 371 865 l 371 458 z m 524 13 l 548 -6 l 1239 882 l 1215 900 z m 1006 159 l 1347 159 l 1347 65 l 1378 65 l 1378 159 l 1472 159 l 1472 188 l 1378 188 l 1378 541 l 1342 541 l 1006 183 z m 1049 188 l 1347 503 l 1347 188 z "},"½":{"ha":1733,"x_min":0,"x_max":0,"o":"m 166 458 l 166 429 l 605 429 l 605 458 l 402 458 l 402 894 l 373 894 l 210 855 l 217 827 l 371 865 l 371 458 z m 526 13 l 549 -6 l 1240 882 l 1216 900 z m 1107 75 l 1597 75 l 1597 104 l 1138 104 l 1138 133 b 1315 276 1138 210 1167 238 l 1442 309 b 1578 432 1531 332 1578 365 b 1371 550 1578 514 1508 550 b 1141 501 1306 550 1218 532 l 1151 474 b 1369 522 1224 504 1317 522 b 1547 432 1478 522 1547 500 b 1438 339 1547 388 1522 362 l 1308 304 b 1107 133 1124 255 1107 219 z "},"¾":{"ha":1652,"x_min":0,"x_max":0,"o":"m 374 403 b 622 544 523 403 622 438 b 486 671 622 587 601 658 b 585 784 563 690 585 741 b 398 899 585 874 502 899 b 185 858 319 899 219 872 l 196 832 b 397 871 260 856 350 871 b 556 786 533 871 556 826 b 357 681 556 722 512 681 l 257 681 l 257 653 l 358 653 b 592 544 523 653 592 623 b 375 432 592 467 522 432 b 153 477 274 432 216 446 l 139 451 b 374 403 171 436 241 403 z m 565 10 l 589 -8 l 1280 879 l 1256 897 z m 1036 159 l 1377 159 l 1377 65 l 1408 65 l 1408 159 l 1502 159 l 1502 188 l 1408 188 l 1408 541 l 1373 541 l 1036 183 z m 1080 188 l 1377 503 l 1377 188 z "},"_":{"ha":1010,"x_min":0,"x_max":0,"o":"m 47 -88 l 47 -117 l 963 -117 l 963 -88 z "},"-":{"ha":613,"x_min":0,"x_max":0,"o":"m 46 376 l 46 348 l 567 348 l 567 376 z "},"–":{"ha":813,"x_min":0,"x_max":0,"o":"m 46 376 l 46 350 l 767 350 l 767 376 z "},"—":{"ha":1241,"x_min":0,"x_max":0,"o":"m 46 376 l 46 352 l 1195 352 l 1195 376 z "},"(":{"ha":372,"x_min":0,"x_max":0,"o":"m 290 -66 l 315 -44 b 147 459 226 72 147 235 b 319 949 149 699 212 830 l 294 969 b 115 460 185 848 115 692 b 290 -66 115 193 218 22 z "},")":{"ha":376,"x_min":0,"x_max":0,"o":"m 74 -44 l 100 -66 b 275 460 172 22 275 193 b 95 969 275 692 205 848 l 71 949 b 242 459 178 830 241 699 b 74 -44 242 235 163 72 z "},"[":{"ha":458,"x_min":0,"x_max":0,"o":"m 171 966 l 171 -49 l 373 -49 l 373 -20 l 201 -20 l 201 938 l 373 938 l 373 966 z "},"]":{"ha":458,"x_min":0,"x_max":0,"o":"m 288 965 l 85 965 l 85 937 l 258 937 l 258 -21 l 85 -21 l 85 -49 l 288 -49 z "},"{":{"ha":544,"x_min":0,"x_max":0,"o":"m 434 -54 l 434 -26 b 263 97 299 -26 263 3 l 263 342 b 164 456 263 421 203 450 b 263 569 203 461 263 490 l 263 815 b 434 937 263 910 299 937 l 434 965 b 233 817 281 965 233 931 l 233 569 b 123 476 233 498 164 481 l 123 435 b 233 342 164 431 233 414 l 233 94 b 434 -54 233 -20 281 -54 z "},"}":{"ha":544,"x_min":0,"x_max":0,"o":"m 110 -26 l 110 -54 b 311 94 263 -54 311 -20 l 311 342 b 421 435 311 413 380 431 l 421 476 b 311 569 380 481 311 497 l 311 817 b 110 965 311 931 263 965 l 110 937 b 281 814 244 937 281 908 l 281 569 b 380 456 281 490 341 461 b 281 342 341 450 281 421 l 281 97 b 110 -26 281 1 244 -26 z "},"#":{"ha":994,"x_min":0,"x_max":0,"o":"m 203 -4 l 229 -10 l 291 267 l 640 267 l 579 -4 l 606 -10 l 667 267 l 892 267 l 892 293 l 673 293 l 743 608 l 951 608 l 951 633 l 749 633 l 808 899 l 781 903 l 721 633 l 372 633 l 431 899 l 405 903 l 344 633 l 119 633 l 119 608 l 339 608 l 269 293 l 60 293 l 60 267 l 263 267 z m 297 293 l 367 608 l 715 608 l 645 293 z "},"%":{"ha":900,"x_min":0,"x_max":0,"o":"m 61 719 b 249 535 61 597 154 535 b 438 719 344 535 438 597 b 249 903 438 842 344 903 b 61 719 154 903 61 842 z m 92 719 b 251 875 92 822 163 875 b 407 721 335 875 407 822 b 251 564 407 617 335 564 b 92 719 163 564 92 617 z m 99 10 l 124 -7 l 815 888 l 792 905 z m 463 176 b 651 -8 463 53 556 -8 b 839 176 746 -8 839 53 b 651 360 839 299 746 360 b 463 176 556 360 463 299 z m 493 176 b 652 332 493 278 565 332 b 808 178 737 332 808 278 b 652 21 808 74 737 21 b 493 176 565 21 493 74 z "},"‰":{"ha":1355,"x_min":0,"x_max":0,"o":"m 61 719 b 249 535 61 597 154 535 b 438 719 344 535 438 597 b 249 903 438 842 344 903 b 61 719 154 903 61 842 z m 92 719 b 251 875 92 822 163 875 b 407 721 335 875 407 822 b 251 564 407 617 335 564 b 92 719 163 564 92 617 z m 99 10 l 124 -7 l 815 888 l 792 905 z m 463 176 b 651 -8 463 53 556 -8 b 839 176 746 -8 839 53 b 651 360 839 299 746 360 b 463 176 556 360 463 299 z m 493 176 b 652 332 493 278 565 332 b 808 178 737 332 808 278 b 652 21 808 74 737 21 b 493 176 565 21 493 74 z m 917 176 b 1106 -8 917 53 1010 -8 b 1294 176 1201 -8 1294 53 b 1106 360 1294 299 1201 360 b 917 176 1010 360 917 299 z m 948 176 b 1107 332 948 278 1019 332 b 1263 178 1192 332 1263 278 b 1107 21 1263 74 1192 21 b 948 176 1019 21 948 74 z "},"'":{"ha":228,"x_min":0,"x_max":0,"o":"m 97 895 l 99 604 l 128 604 l 131 895 z "},"\"":{"ha":360,"x_min":0,"x_max":0,"o":"m 230 895 l 232 604 l 261 604 l 263 895 z m 97 895 l 99 604 l 128 604 l 131 895 z "},"‘":{"ha":222,"x_min":0,"x_max":0,"o":"m 192 894 l 164 906 l 92 752 l 92 625 l 123 625 l 123 747 z "},"’":{"ha":222,"x_min":0,"x_max":0,"o":"m 68 626 l 96 614 l 167 768 l 167 895 l 137 895 l 137 774 z "},"“":{"ha":376,"x_min":0,"x_max":0,"o":"m 347 892 l 319 903 l 247 749 l 247 622 l 278 622 l 278 744 z m 92 622 l 123 622 l 123 744 l 192 892 l 164 903 l 92 749 z "},"”":{"ha":376,"x_min":0,"x_max":0,"o":"m 68 626 l 96 614 l 167 768 l 167 895 l 137 895 l 137 774 z m 223 626 l 251 614 l 322 768 l 322 895 l 292 895 l 292 774 z "},"‚":{"ha":294,"x_min":0,"x_max":0,"o":"m 115 -150 l 142 -162 l 214 -8 l 214 119 l 183 119 l 183 -2 z "},"„":{"ha":449,"x_min":0,"x_max":0,"o":"m 115 -150 l 142 -162 l 214 -8 l 214 119 l 183 119 l 183 -2 z m 269 -150 l 297 -162 l 369 -8 l 369 119 l 338 119 l 338 -2 z "},"‹":{"ha":388,"x_min":0,"x_max":0,"o":"m 35 339 l 301 -7 l 325 13 l 76 339 l 324 665 l 301 684 z "},"›":{"ha":388,"x_min":0,"x_max":0,"o":"m 352 340 l 86 686 l 63 666 l 312 340 l 63 14 l 87 -5 z "},"«":{"ha":598,"x_min":0,"x_max":0,"o":"m 35 339 l 301 -7 l 325 13 l 76 339 l 324 665 l 301 684 z m 246 339 l 512 -7 l 535 13 l 286 339 l 535 665 l 511 684 z "},"»":{"ha":598,"x_min":0,"x_max":0,"o":"m 563 339 l 297 684 l 274 665 l 522 339 l 273 13 l 297 -7 z m 63 13 l 86 -7 l 352 339 l 87 684 l 63 665 l 312 339 z "},"*":{"ha":429,"x_min":0,"x_max":0,"o":"m 199 682 l 199 540 l 229 540 l 229 683 l 366 603 l 381 630 l 244 708 l 379 787 l 365 811 l 229 733 l 229 873 l 199 873 l 199 734 l 64 812 l 49 788 l 185 708 l 47 629 l 63 603 z "},"†":{"ha":499,"x_min":0,"x_max":0,"o":"m 233 618 l 237 -82 l 262 -82 l 266 618 l 421 618 l 421 643 l 266 643 l 266 917 l 233 917 l 233 643 l 78 643 l 78 618 z "},"‡":{"ha":499,"x_min":0,"x_max":0,"o":"m 234 333 l 237 -82 l 262 -82 l 265 333 l 421 333 l 421 358 l 265 358 l 266 618 l 421 618 l 421 643 l 266 643 l 266 917 l 233 917 l 233 643 l 78 643 l 78 618 l 233 618 l 234 358 l 78 358 l 78 333 z "},".":{"ha":226,"x_min":0,"x_max":0,"o":"m 97 127 l 97 0 l 129 0 l 129 127 z "},",":{"ha":296,"x_min":0,"x_max":0,"o":"m 114 -201 l 188 -40 l 188 127 l 156 127 l 156 -33 l 86 -187 z "},":":{"ha":226,"x_min":0,"x_max":0,"o":"m 97 127 l 97 0 l 129 0 l 129 127 z m 97 547 l 129 547 l 129 674 l 97 674 z "},";":{"ha":297,"x_min":0,"x_max":0,"o":"m 114 -201 l 188 -40 l 188 127 l 156 127 l 156 -33 l 86 -187 z m 156 547 l 188 547 l 188 674 l 156 674 z "},"…":{"ha":563,"x_min":0,"x_max":0,"o":"m 97 127 l 97 0 l 129 0 l 129 127 z m 258 0 l 290 0 l 290 127 l 258 127 z m 434 0 l 466 0 l 466 127 l 434 127 z "},"!":{"ha":412,"x_min":0,"x_max":0,"o":"m 189 580 l 193 213 l 217 213 l 222 580 l 222 895 l 189 895 z m 188 0 l 224 0 l 224 89 l 188 89 z "},"¡":{"ha":412,"x_min":0,"x_max":0,"o":"m 223 192 l 219 559 l 194 559 l 190 192 l 190 -123 l 223 -123 z m 188 683 l 224 683 l 224 772 l 188 772 z "},"?":{"ha":703,"x_min":0,"x_max":0,"o":"m 266 301 l 266 213 l 297 213 l 297 295 b 456 501 297 390 374 449 b 642 713 548 562 642 617 b 356 904 642 865 518 904 b 39 843 244 904 124 876 l 49 815 b 362 874 140 847 249 874 b 609 716 497 874 609 840 b 446 531 609 635 531 586 b 266 301 357 473 266 410 z m 266 0 l 298 0 l 298 127 l 266 127 z "},"¿":{"ha":703,"x_min":0,"x_max":0,"o":"m 438 471 l 438 559 l 406 559 l 406 477 b 248 271 406 382 329 324 b 62 60 156 210 62 156 b 347 -132 62 -92 185 -132 b 665 -71 459 -132 580 -103 l 654 -42 b 342 -102 564 -75 455 -102 b 94 56 206 -102 94 -67 b 258 242 94 137 172 186 b 438 471 347 299 438 362 z m 406 645 l 438 645 l 438 772 l 406 772 z "},"/":{"ha":503,"x_min":0,"x_max":0,"o":"m 23 -206 l 54 -216 l 481 1056 l 449 1065 z "},"\\":{"ha":503,"x_min":0,"x_max":0,"o":"m 23 1058 l 449 -212 l 481 -203 l 54 1067 z "},"⁄":{"ha":482,"x_min":0,"x_max":0,"o":"m -114 10 l -90 -8 l 601 879 l 576 897 z "},"|":{"ha":408,"x_min":0,"x_max":0,"o":"m 188 1059 l 188 -297 l 221 -297 l 221 1059 z "},"¦":{"ha":408,"x_min":0,"x_max":0,"o":"m 188 290 l 188 -297 l 221 -297 l 221 290 z m 188 488 l 221 488 l 221 1059 l 188 1059 z "},"@":{"ha":1487,"x_min":0,"x_max":0,"o":"m 131 349 b 701 -167 131 -16 392 -167 b 1110 -78 897 -167 1061 -101 l 1097 -50 b 701 -135 1049 -70 930 -135 b 163 347 392 -135 163 24 b 760 874 163 678 415 874 b 1321 386 1083 874 1321 709 b 1165 90 1321 190 1263 90 b 1058 194 1101 90 1058 117 l 1058 424 b 749 701 1058 598 947 701 b 481 647 643 701 541 672 l 492 619 b 748 669 553 642 640 669 b 1027 428 929 669 1021 584 b 861 434 968 432 913 434 b 398 218 561 434 398 362 b 632 45 398 103 490 45 b 1029 192 807 45 950 125 b 1161 61 1029 101 1085 61 b 1354 389 1278 61 1354 172 b 759 904 1354 740 1087 904 b 131 349 416 904 131 717 z m 431 217 b 856 403 431 329 559 403 b 1028 397 908 403 965 401 l 1028 228 b 642 76 944 154 799 76 b 431 217 503 76 431 126 z "},"&":{"ha":1119,"x_min":0,"x_max":0,"o":"m 440 -8 b 798 133 579 -8 712 31 b 1003 -8 862 90 928 42 l 1022 19 b 817 161 947 69 879 115 b 889 460 878 253 889 366 l 858 460 b 792 178 858 368 849 266 b 284 727 476 408 284 569 b 497 871 284 821 372 871 b 710 836 561 871 639 859 l 721 868 b 501 904 652 889 574 904 b 249 724 365 904 249 851 b 385 466 249 635 288 569 b 156 197 244 413 156 317 b 440 -8 156 44 299 -8 z m 188 196 b 409 444 188 327 303 409 b 774 151 492 364 611 269 b 451 21 685 48 545 21 b 188 196 322 21 188 68 z "},"§":{"ha":908,"x_min":0,"x_max":0,"o":"m 128 -83 l 115 -111 b 429 -172 166 -137 265 -172 b 760 50 619 -172 760 -114 b 690 194 760 121 733 168 b 795 359 757 233 795 287 b 184 701 795 695 184 405 b 456 873 184 817 315 873 b 715 830 574 873 656 851 l 726 858 b 459 903 665 880 572 903 b 155 699 304 903 155 840 b 240 550 155 624 185 583 b 121 381 183 517 121 476 b 731 47 121 56 731 369 b 431 -142 731 -98 593 -142 b 128 -83 274 -142 184 -109 z m 149 384 b 272 537 149 470 213 507 b 767 357 469 490 767 565 b 665 213 767 292 716 237 b 149 384 467 283 149 172 z "},"¶":{"ha":841,"x_min":0,"x_max":0,"o":"m 388 378 l 531 378 l 531 -126 l 565 -126 l 565 865 l 383 865 b 70 619 178 865 70 777 b 388 378 70 452 197 378 z m 622 -126 l 655 -126 l 655 865 l 622 865 z "},"·":{"ha":226,"x_min":0,"x_max":0,"o":"m 97 567 l 97 440 l 129 440 l 129 567 z "},"•":{"ha":313,"x_min":0,"x_max":0,"o":"m 97 503 l 97 353 l 215 353 l 215 503 z "},"+":{"ha":795,"x_min":0,"x_max":0,"o":"m 381 400 l 381 121 l 414 121 l 414 400 l 717 400 l 717 431 l 414 431 l 414 678 l 381 678 l 381 431 l 78 431 l 78 400 z "},"−":{"ha":842,"x_min":0,"x_max":0,"o":"m 78 431 l 78 400 l 764 400 l 764 431 z "},"±":{"ha":801,"x_min":0,"x_max":0,"o":"m 383 516 l 383 242 l 417 242 l 417 516 l 722 516 l 722 547 l 417 547 l 417 799 l 383 799 l 383 547 l 78 547 l 78 516 z m 78 83 l 722 83 l 722 113 l 78 113 z "},"÷":{"ha":842,"x_min":0,"x_max":0,"o":"m 401 253 l 401 167 l 441 167 l 441 253 z m 78 398 l 764 398 l 764 428 l 78 428 z m 401 563 l 441 563 l 441 649 l 401 649 z "},"×":{"ha":707,"x_min":0,"x_max":0,"o":"m 87 140 l 108 117 l 352 354 l 597 117 l 620 140 l 376 378 l 615 610 l 593 632 l 353 399 l 114 632 l 91 609 l 330 376 z "},"=":{"ha":795,"x_min":0,"x_max":0,"o":"m 78 328 l 78 298 l 717 298 l 717 328 z m 78 497 l 717 497 l 717 527 l 78 527 z "},"<":{"ha":861,"x_min":0,"x_max":0,"o":"m 69 370 l 728 78 l 742 106 l 110 385 l 743 663 l 731 692 l 69 399 z "},">":{"ha":861,"x_min":0,"x_max":0,"o":"m 131 78 l 792 371 l 792 400 l 133 692 l 119 664 l 751 385 l 117 107 z "},"≤":{"ha":874,"x_min":0,"x_max":0,"o":"m 96 502 l 755 230 l 767 258 l 135 516 l 768 744 l 757 772 l 96 531 z m 90 1 l 776 1 l 776 31 l 90 31 z "},"≥":{"ha":874,"x_min":0,"x_max":0,"o":"m 120 258 l 133 230 l 792 502 l 792 531 l 131 772 l 119 744 l 753 516 z m 111 1 l 797 1 l 797 31 l 111 31 z "},"≈":{"ha":771,"x_min":0,"x_max":0,"o":"m 249 333 b 517 263 357 333 424 263 b 692 319 585 263 643 286 l 676 346 b 517 293 635 317 578 293 b 249 363 432 293 364 363 b 78 306 185 363 128 340 l 94 280 b 249 333 135 308 193 333 z m 78 537 l 94 510 b 249 563 135 539 193 563 b 517 493 357 563 424 493 b 692 550 585 493 643 517 l 676 576 b 517 524 635 548 578 524 b 249 594 432 524 364 594 b 78 537 185 594 128 570 z "},"≠":{"ha":795,"x_min":0,"x_max":0,"o":"m 278 138 l 309 128 l 368 298 l 717 298 l 717 328 l 378 328 l 438 497 l 717 497 l 717 528 l 448 528 l 509 703 l 478 714 l 413 528 l 78 528 l 78 497 l 403 497 l 344 328 l 78 328 l 78 298 l 334 298 z "},"¬":{"ha":830,"x_min":0,"x_max":0,"o":"m 721 356 l 721 205 l 751 205 l 751 387 l 78 387 l 78 356 z "},"←":{"ha":1128,"x_min":0,"x_max":0,"o":"m 133 439 l 385 192 l 407 214 l 176 438 l 1029 438 l 1029 468 l 176 468 l 407 692 l 385 713 l 133 468 z "},"↑":{"ha":758,"x_min":0,"x_max":0,"o":"m 365 853 l 365 0 l 395 0 l 395 853 l 619 622 l 640 644 l 395 896 l 366 896 l 119 644 l 141 622 z "},"→":{"ha":1128,"x_min":0,"x_max":0,"o":"m 721 215 l 742 193 l 994 440 l 994 469 l 742 714 l 721 692 l 952 469 l 99 469 l 99 438 l 952 438 z "},"↓":{"ha":754,"x_min":0,"x_max":0,"o":"m 117 252 l 363 0 l 392 0 l 638 252 l 616 274 l 392 42 l 392 896 l 362 896 l 362 42 l 138 274 z "},"∂":{"ha":1018,"x_min":0,"x_max":0,"o":"m 466 -9 b 889 419 715 -9 889 131 b 472 904 889 710 742 904 b 177 822 345 904 228 855 l 192 797 b 472 874 264 840 365 874 b 859 410 717 874 859 693 b 858 359 859 393 858 376 b 497 547 819 433 708 547 b 139 262 356 547 139 478 b 466 -9 139 70 321 -9 z m 170 262 b 497 517 170 460 366 517 b 849 315 687 517 799 422 b 466 20 819 126 669 20 b 170 262 311 20 170 108 z "},"∆":{"ha":1067,"x_min":0,"x_max":0,"o":"m 516 982 l 66 0 l 1001 0 l 551 982 z m 117 31 l 533 938 l 950 31 z "},"∏":{"ha":1065,"x_min":0,"x_max":0,"o":"m 186 895 l 186 -156 l 219 -156 l 219 865 l 845 865 l 845 -156 l 878 -156 l 878 895 z "},"∑":{"ha":924,"x_min":0,"x_max":0,"o":"m 135 -112 l 135 -156 l 839 -156 l 839 -126 l 166 -126 l 599 369 l 173 865 l 839 865 l 839 895 l 135 895 l 135 855 l 555 371 z "},"µ":{"ha":1001,"x_min":0,"x_max":0,"o":"m 155 674 l 155 -274 l 188 -274 l 188 119 b 450 -8 244 17 363 -8 b 813 91 624 -8 769 67 l 817 0 l 846 0 l 846 674 l 813 674 l 813 128 b 450 22 734 79 598 22 b 188 219 269 22 188 133 l 188 674 z "},"∕":{"ha":503,"x_min":0,"x_max":0,"o":"m 23 -206 l 54 -216 l 481 1056 l 449 1065 z "},"√":{"ha":909,"x_min":0,"x_max":0,"o":"m 181 494 l 417 0 l 451 0 l 898 982 l 870 994 l 434 34 l 199 526 l 57 526 l 57 494 z "},"∞":{"ha":1296,"x_min":0,"x_max":0,"o":"m 117 339 b 350 101 117 183 221 101 b 556 208 436 101 499 142 l 648 315 l 740 208 b 946 101 797 142 860 101 b 1179 339 1075 101 1179 183 b 946 576 1179 494 1075 576 b 740 470 860 576 797 535 l 648 364 l 556 470 b 350 576 499 535 436 576 b 117 339 221 576 117 494 z m 151 339 b 350 545 151 460 224 545 b 543 435 412 545 468 521 l 626 339 l 544 243 b 350 133 470 156 412 133 b 151 339 224 133 151 219 z m 669 339 l 753 435 b 946 545 828 521 884 545 b 1144 339 1072 545 1144 459 b 946 133 1144 219 1072 133 b 751 243 884 133 826 156 z "},"∫":{"ha":731,"x_min":0,"x_max":0,"o":"m 3 -215 l -4 -244 b 146 -262 -4 -244 58 -262 b 382 -80 291 -262 382 -225 l 382 774 b 586 940 382 910 440 940 b 727 924 649 940 691 933 l 735 953 b 583 971 735 953 673 971 b 349 789 440 971 349 934 l 349 -65 b 142 -231 349 -201 291 -231 b 3 -215 80 -231 39 -224 z "},"$":{"ha":876,"x_min":0,"x_max":0,"o":"m 340 64 l 340 -58 l 370 -58 l 370 62 b 439 60 392 61 415 60 b 500 63 460 60 481 62 l 500 -58 l 530 -58 l 530 66 b 756 269 669 85 756 151 b 530 465 756 408 652 446 l 530 783 b 707 742 602 775 661 758 l 717 770 b 530 810 670 786 607 804 l 530 957 l 500 957 l 500 814 b 442 816 481 815 461 816 b 370 813 419 816 395 815 l 370 957 l 340 957 l 340 809 b 135 622 238 793 135 746 b 340 458 135 507 228 474 l 340 91 b 122 140 255 97 175 117 l 110 115 b 340 64 151 96 230 72 z m 165 623 b 340 781 165 722 244 765 l 340 487 b 165 623 242 501 165 531 z m 370 89 l 370 454 l 432 448 b 500 440 455 446 478 443 l 500 90 b 440 87 481 88 461 87 b 370 89 415 87 392 88 z m 370 483 l 370 785 b 440 788 393 788 417 788 b 500 786 460 788 481 788 l 500 469 b 435 476 478 472 457 474 b 370 483 413 478 391 481 z m 530 93 l 530 436 b 725 272 638 419 725 384 b 530 93 725 181 665 114 z "},"¢":{"ha":844,"x_min":0,"x_max":0,"o":"m 374 50 l 374 -58 l 404 -58 l 404 44 b 491 38 431 40 460 38 b 534 40 506 38 520 39 l 534 -58 l 564 -58 l 564 42 b 767 106 642 51 707 74 l 752 131 b 564 73 694 102 634 81 l 564 660 b 728 619 622 654 674 641 l 741 647 b 564 690 690 667 633 684 l 564 809 l 534 809 l 534 692 b 492 694 520 693 506 694 b 404 688 461 694 432 692 l 404 809 l 374 809 l 374 681 b 111 359 215 647 111 535 b 374 50 111 199 211 86 z m 144 359 b 374 650 144 524 237 617 l 374 81 b 144 359 233 115 144 211 z m 404 76 l 404 656 b 492 663 432 660 461 663 b 534 662 506 663 520 663 l 534 70 b 491 69 520 69 506 69 b 404 76 460 69 431 71 z "},"£":{"ha":791,"x_min":0,"x_max":0,"o":"m 159 31 l 159 0 l 746 0 l 746 31 l 194 31 l 254 440 l 675 440 l 675 471 l 259 471 l 286 653 b 536 873 316 846 417 873 b 742 852 600 873 679 864 l 749 883 b 536 904 695 892 615 904 b 253 653 413 904 290 881 l 225 471 l 91 471 l 91 440 l 221 440 z "},"¤":{"ha":817,"x_min":0,"x_max":0,"o":"m 560 247 l 656 149 l 676 169 l 583 265 b 652 428 626 303 652 360 b 590 586 652 494 629 547 l 676 674 l 656 694 l 569 605 b 410 655 527 638 472 655 b 250 604 347 655 292 637 l 162 694 l 142 674 l 228 585 b 167 428 190 547 167 493 b 235 265 167 360 193 303 l 142 169 l 163 149 l 258 247 b 409 203 299 218 351 203 b 560 247 467 203 519 218 z m 196 428 b 410 627 196 550 284 627 b 624 428 535 627 624 550 b 410 230 624 307 535 230 b 196 428 284 230 196 307 z "},"¥":{"ha":1094,"x_min":0,"x_max":0,"o":"m 543 224 l 543 0 l 576 0 l 576 224 l 831 224 l 831 254 l 588 254 l 660 353 l 831 353 l 831 384 l 682 384 l 1045 883 l 1019 903 l 560 274 l 76 903 l 49 883 l 432 384 l 302 384 l 302 353 l 455 353 l 531 254 l 302 254 l 302 224 z "},"€":{"ha":1010,"x_min":0,"x_max":0,"o":"m 222 351 b 622 -8 249 114 397 -8 b 917 72 744 -8 838 22 l 899 100 b 622 25 829 56 744 25 b 258 351 410 25 284 143 l 737 351 l 737 382 l 256 382 b 253 441 254 401 253 421 b 256 505 253 463 254 485 l 737 505 l 737 535 l 260 535 b 622 871 290 781 450 871 b 860 824 706 871 775 860 l 874 854 b 622 904 788 892 710 904 b 224 535 440 904 256 809 l 69 535 l 69 505 l 221 505 b 218 440 219 485 218 462 b 219 382 218 420 219 401 l 69 382 l 69 351 z "},"ƒ":{"ha":783,"x_min":0,"x_max":0,"o":"m -111 -247 l -118 -275 b 56 -290 -118 -275 -60 -290 b 314 -84 226 -290 301 -215 l 363 415 l 715 415 l 715 442 l 365 442 l 386 662 b 609 835 397 775 467 835 b 777 820 676 835 728 830 l 784 849 b 610 864 784 849 726 864 b 352 658 440 864 365 789 l 331 442 l 119 442 l 119 415 l 328 415 l 280 -88 b 57 -261 269 -201 199 -261 b -111 -247 -10 -261 -62 -256 z "},"₱":{"ha":1153,"x_min":0,"x_max":0,"o":"m 269 475 l 269 0 l 303 0 l 303 281 l 680 281 b 987 475 832 281 947 346 l 1129 475 l 1129 506 l 994 506 b 1002 583 999 529 1002 555 b 995 664 1002 610 1000 638 l 1129 664 l 1129 694 l 988 694 b 681 895 955 810 863 895 l 269 895 l 269 694 l 103 694 l 103 664 l 269 664 l 269 506 l 103 506 l 103 475 z m 303 312 l 303 475 l 951 475 b 677 312 915 376 825 312 z m 303 506 l 303 664 l 960 664 b 969 583 966 639 969 612 b 960 506 969 556 966 530 z m 303 694 l 303 865 l 685 865 b 952 694 826 865 917 801 z "},"^":{"ha":686,"x_min":0,"x_max":0,"o":"m 66 513 l 93 495 l 343 858 l 593 495 l 620 513 l 358 895 l 328 895 z "},"~":{"ha":672,"x_min":0,"x_max":0,"o":"m 458 311 b 601 399 503 311 561 326 l 573 414 b 456 344 546 365 512 344 b 338 376 411 344 376 360 b 209 413 301 391 255 413 b 70 326 153 413 103 386 l 98 310 b 210 380 123 358 163 380 b 335 343 253 380 297 360 b 458 311 371 327 417 311 z "},"´":{"ha":521,"x_min":0,"x_max":0,"o":"m 124 1035 l 137 1009 l 397 1140 l 382 1171 z "},"`":{"ha":522,"x_min":0,"x_max":0,"o":"m 124 1144 l 384 1008 l 399 1033 l 140 1174 z "},"˝":{"ha":723,"x_min":0,"x_max":0,"o":"m 165 1029 l 186 1008 l 392 1215 l 368 1240 z m 415 1029 l 436 1008 l 642 1215 l 618 1240 z "},"ˆ":{"ha":676,"x_min":0,"x_max":0,"o":"m 124 1031 l 144 1009 l 338 1188 l 531 1009 l 552 1031 l 358 1211 l 319 1211 z "},"ˇ":{"ha":676,"x_min":0,"x_max":0,"o":"m 124 1194 l 319 1014 l 358 1014 l 552 1194 l 531 1216 l 338 1038 l 144 1216 z "},"˘":{"ha":606,"x_min":0,"x_max":0,"o":"m 154 1196 l 124 1194 b 303 1009 128 1101 160 1009 b 482 1194 444 1009 477 1101 l 451 1196 b 303 1040 445 1078 395 1040 b 154 1196 210 1040 160 1078 z "},"˜":{"ha":702,"x_min":0,"x_max":0,"o":"m 351 1044 b 463 1012 383 1028 424 1012 b 578 1078 503 1012 547 1030 l 552 1095 b 463 1044 528 1058 498 1044 b 352 1078 419 1044 386 1063 b 245 1111 319 1094 284 1111 b 124 1041 201 1111 152 1092 l 149 1025 b 242 1081 174 1064 207 1081 b 351 1044 283 1081 317 1061 z "},"¯":{"ha":600,"x_min":0,"x_max":0,"o":"m 124 1058 l 124 1028 l 476 1028 l 476 1058 z "},"¨":{"ha":456,"x_min":0,"x_max":0,"o":"m 124 1112 l 124 1027 l 156 1027 l 156 1112 z m 299 1027 l 332 1027 l 332 1112 l 299 1112 z "},"˙":{"ha":280,"x_min":0,"x_max":0,"o":"m 124 1111 l 124 1027 l 156 1027 l 156 1111 z "},"˚":{"ha":495,"x_min":0,"x_max":0,"o":"m 124 1106 b 247 997 124 1044 169 997 b 372 1106 322 997 372 1044 b 247 1213 372 1167 321 1213 b 124 1106 174 1213 124 1167 z m 154 1105 b 248 1185 154 1150 190 1185 b 341 1105 306 1185 341 1150 b 248 1024 341 1059 305 1024 b 154 1105 190 1024 154 1059 z "},"¸":{"ha":481,"x_min":0,"x_max":0,"o":"m 133 -234 l 126 -262 b 212 -276 135 -265 156 -276 b 365 -149 302 -276 365 -226 b 253 18 365 -75 327 -23 l 226 0 b 332 -147 297 -40 332 -88 b 213 -246 332 -235 238 -246 b 133 -234 174 -246 150 -239 z "},"˛":{"ha":546,"x_min":0,"x_max":0,"o":"m 153 -155 b 299 -278 153 -230 208 -278 b 393 -265 345 -278 381 -267 l 385 -235 b 299 -247 367 -240 332 -247 b 186 -153 235 -247 186 -214 b 316 6 186 -85 235 -40 l 287 24 b 153 -155 206 -24 153 -75 z "},"©":{"ha":1179,"x_min":0,"x_max":0,"o":"m 590 -7 b 1054 451 867 -7 1054 177 b 590 905 1054 722 866 905 b 125 449 313 905 125 721 b 590 -7 125 178 313 -7 z m 155 449 b 590 878 155 709 335 878 b 1025 451 845 878 1025 709 b 590 20 1025 201 855 20 b 155 449 335 20 155 190 z m 336 444 b 592 204 336 275 456 204 b 776 249 660 204 727 225 l 763 272 b 592 231 726 256 663 231 b 365 441 476 231 365 289 b 606 658 365 583 481 658 b 756 625 664 658 703 646 l 769 649 b 602 685 734 663 688 685 b 336 444 468 685 336 599 z "},"®":{"ha":712,"x_min":0,"x_max":0,"o":"m 406 581 l 442 494 l 466 503 l 431 587 b 483 662 465 597 483 623 b 390 743 483 717 449 743 l 247 743 l 247 494 l 275 494 l 275 581 z m 66 623 b 356 340 66 453 182 340 b 646 623 530 340 646 453 b 356 906 646 792 530 906 b 66 623 182 906 66 792 z m 94 623 b 356 880 94 777 199 880 b 617 623 513 880 617 777 b 356 366 617 469 513 366 b 94 623 199 366 94 469 z m 275 606 l 275 718 l 388 718 b 457 663 436 718 457 697 b 391 606 457 627 438 606 z "},"™":{"ha":1301,"x_min":0,"x_max":0,"o":"m 627 895 l 627 455 l 657 455 l 657 847 l 875 474 l 903 474 l 1125 847 l 1125 455 l 1155 455 l 1155 895 l 1120 895 l 890 508 l 662 895 z m 54 868 l 278 868 l 278 455 l 308 455 l 308 868 l 531 868 l 531 896 l 54 896 z "},"°":{"ha":594,"x_min":0,"x_max":0,"o":"m 69 687 b 297 469 69 556 157 469 b 524 687 434 469 524 556 b 297 904 524 817 431 904 b 69 687 159 904 69 817 z m 102 687 b 297 875 102 786 172 875 b 490 687 423 875 490 786 b 297 499 490 587 423 499 b 102 687 172 499 102 587 z "},"◊":{"ha":886,"x_min":0,"x_max":0,"o":"m 142 442 l 427 0 l 459 0 l 744 442 l 459 894 l 427 894 z m 180 442 l 443 862 l 706 442 l 443 33 z "},"₹":{"ha":972,"x_min":0,"x_max":0,"o":"m 542 342 l 708 -8 l 739 6 l 574 352 b 750 606 674 385 750 483 l 875 606 l 875 637 l 749 637 b 578 865 744 738 688 831 l 875 865 l 875 895 l 195 895 l 195 864 l 421 864 b 717 637 608 864 711 769 l 195 637 l 195 606 l 718 606 b 420 359 712 451 613 359 l 195 359 l 195 329 l 408 329 b 542 342 462 329 507 333 z "},"ﬀ":{"ha":1214,"x_min":0,"x_max":0,"o":"m 224 0 l 253 0 l 253 646 l 799 646 l 799 0 l 828 0 l 828 646 l 1213 646 l 1213 674 l 828 674 l 828 787 b 1036 955 828 925 915 955 b 1242 932 1144 955 1206 940 l 1248 961 b 1035 985 1212 969 1143 985 b 799 790 888 985 799 936 l 799 674 l 253 674 l 253 772 b 461 940 253 910 340 940 b 628 923 545 940 592 931 l 635 951 b 460 970 599 959 549 970 b 224 775 313 970 224 922 l 224 674 l 85 674 l 85 646 l 224 646 z "},"ﬁ":{"ha":932,"x_min":0,"x_max":0,"o":"m 224 0 l 253 0 l 253 646 l 747 646 l 747 0 l 777 0 l 777 674 l 253 674 l 253 787 b 461 955 253 925 340 955 b 667 932 569 955 631 940 l 673 961 b 460 985 637 969 568 985 b 224 790 313 985 224 936 l 224 674 l 85 674 l 85 646 l 224 646 z "},"ﬂ":{"ha":1001,"x_min":0,"x_max":0,"o":"m 224 646 l 224 0 l 253 0 l 253 646 l 601 646 l 601 674 l 253 674 l 253 787 b 461 955 253 925 340 955 b 642 933 554 955 606 940 l 649 961 b 460 985 613 969 556 985 b 224 790 313 985 224 936 l 224 674 l 85 674 l 85 646 z m 817 0 l 847 0 l 847 982 l 817 982 z "},"ﬃ":{"ha":1507,"x_min":0,"x_max":0,"o":"m 224 0 l 253 0 l 253 646 l 799 646 l 799 0 l 828 0 l 828 646 l 1322 646 l 1322 0 l 1352 0 l 1352 674 l 828 674 l 828 787 b 1036 955 828 925 915 955 b 1242 932 1144 955 1206 940 l 1248 961 b 1035 985 1212 969 1143 985 b 799 790 888 985 799 936 l 799 674 l 253 674 l 253 772 b 461 940 253 910 340 940 b 628 923 545 940 592 931 l 635 951 b 460 970 599 959 549 970 b 224 775 313 970 224 922 l 224 674 l 85 674 l 85 646 l 224 646 z "},"ﬄ":{"ha":1576,"x_min":0,"x_max":0,"o":"m 224 0 l 253 0 l 253 646 l 799 646 l 799 0 l 828 0 l 828 646 l 1176 646 l 1176 674 l 828 674 l 828 787 b 1036 955 828 925 915 955 b 1217 933 1129 955 1181 940 l 1224 961 b 1035 985 1188 969 1131 985 b 799 790 888 985 799 936 l 799 674 l 253 674 l 253 772 b 461 940 253 910 340 940 b 628 923 545 940 592 927 l 635 951 b 460 970 599 956 549 970 b 224 775 313 970 224 922 l 224 674 l 85 674 l 85 646 l 224 646 z m 1392 0 l 1422 0 l 1422 982 l 1392 982 z "},"₀":{"ha":764,"x_min":0,"x_max":0,"o":"m 123 51 b 382 -195 123 -132 255 -195 b 641 51 509 -195 641 -128 b 382 295 641 233 509 295 b 123 51 255 295 123 233 z m 154 51 b 382 266 154 210 265 266 b 610 51 499 266 610 210 b 382 -166 610 -108 499 -166 b 154 51 265 -166 154 -108 z "},"₁":{"ha":764,"x_min":0,"x_max":0,"o":"m 166 -162 l 166 -192 l 605 -192 l 605 -162 l 402 -162 l 402 274 l 373 274 l 210 234 l 217 206 l 371 244 l 371 -162 z "},"₂":{"ha":764,"x_min":0,"x_max":0,"o":"m 138 -119 l 138 -176 l 627 -176 l 627 -147 l 169 -147 l 169 -118 b 346 25 169 -41 197 -13 l 473 58 b 608 181 562 81 608 113 b 401 299 608 263 538 299 b 172 250 336 299 249 281 l 182 223 b 400 270 254 253 348 270 b 578 181 508 270 578 249 b 468 88 578 136 553 110 l 338 53 b 138 -119 154 3 138 -32 z "},"₃":{"ha":764,"x_min":0,"x_max":0,"o":"m 374 -206 b 622 -65 523 -206 622 -171 b 486 62 622 -22 601 49 b 585 175 563 81 585 132 b 398 290 585 265 502 290 b 185 249 319 290 219 263 l 196 223 b 397 262 260 247 350 262 b 556 177 533 262 556 217 b 357 72 556 113 512 72 l 257 72 l 257 44 l 358 44 b 592 -65 523 44 592 14 b 375 -177 592 -142 522 -177 b 153 -132 274 -177 216 -163 l 139 -158 b 374 -206 171 -173 241 -206 z "},"₄":{"ha":764,"x_min":0,"x_max":0,"o":"m 489 -98 l 489 -192 l 520 -192 l 520 -98 l 614 -98 l 614 -69 l 520 -69 l 520 284 l 485 284 l 148 -74 l 148 -98 z m 192 -69 l 489 246 l 489 -69 z "},"₅":{"ha":764,"x_min":0,"x_max":0,"o":"m 396 -200 b 626 -43 527 -200 626 -151 b 415 110 626 78 524 110 b 215 59 337 110 270 90 l 226 256 l 568 256 l 568 285 l 201 285 l 188 44 l 222 33 b 414 81 273 66 358 81 b 595 -43 548 81 595 38 b 396 -170 595 -138 500 -170 b 150 -108 283 -170 202 -140 l 135 -134 b 396 -200 172 -156 251 -200 z "},"₆":{"ha":764,"x_min":0,"x_max":0,"o":"m 376 -200 b 636 -31 555 -200 636 -119 b 428 129 636 76 533 129 b 156 -8 332 129 219 80 b 153 37 153 7 153 22 b 414 266 153 174 244 266 b 557 244 467 266 518 258 l 566 270 b 416 294 533 281 476 294 b 124 32 231 294 124 193 b 376 -200 124 -127 245 -200 z m 165 -44 b 429 101 210 39 332 101 b 608 -31 531 101 608 52 b 377 -172 608 -128 498 -172 b 165 -44 310 -172 198 -146 z "},"₇":{"ha":764,"x_min":0,"x_max":0,"o":"m 285 -174 l 310 -191 l 635 258 l 635 284 l 147 284 l 147 256 l 597 256 z "},"₈":{"ha":764,"x_min":0,"x_max":0,"o":"m 141 -66 b 382 -200 141 -158 246 -200 b 623 -66 518 -200 623 -158 b 463 60 623 10 535 58 b 592 170 531 65 592 108 b 382 297 592 260 497 297 b 172 170 267 297 172 260 b 301 60 172 108 229 66 b 141 -66 228 58 141 10 z m 171 -66 b 382 46 171 10 273 46 b 593 -66 491 46 593 10 b 381 -173 593 -136 520 -173 b 171 -66 244 -173 171 -136 z m 200 170 b 382 272 200 246 280 272 b 564 170 484 272 564 246 b 382 74 564 97 456 74 b 200 170 308 74 200 97 z "},"₉":{"ha":764,"x_min":0,"x_max":0,"o":"m 352 -200 b 622 68 525 -200 622 -104 b 382 294 622 213 508 294 b 145 123 265 294 145 245 b 343 -28 145 -8 287 -28 b 597 86 469 -28 547 26 l 597 76 b 353 -174 597 -99 501 -174 b 183 -137 300 -174 228 -164 l 169 -159 b 352 -200 197 -177 257 -200 z m 172 124 b 383 267 172 213 260 267 b 592 119 470 267 567 219 b 343 -1 540 53 466 -1 b 172 124 290 -1 172 18 z "},"₍":{"ha":382,"x_min":0,"x_max":0,"o":"m 128 42 b 226 -237 128 -122 190 -188 l 250 -220 b 156 42 199 -152 156 -92 b 248 288 156 153 193 238 l 228 307 b 128 42 179 260 128 178 z "},"₎":{"ha":382,"x_min":0,"x_max":0,"o":"m 133 -219 l 156 -236 b 254 43 192 -187 254 -120 b 154 308 254 180 203 261 l 135 288 b 226 43 190 238 226 155 b 133 -219 226 -91 184 -151 z "},"¹":{"ha":764,"x_min":0,"x_max":0,"o":"m 166 560 l 166 531 l 605 531 l 605 560 l 402 560 l 402 997 l 373 997 l 210 957 l 217 929 l 371 967 l 371 560 z "},"²":{"ha":764,"x_min":0,"x_max":0,"o":"m 138 587 l 138 529 l 627 529 l 627 558 l 169 558 l 169 588 b 346 731 169 665 197 692 l 473 763 b 608 886 562 786 608 819 b 401 1004 608 968 538 1004 b 172 956 336 1004 249 986 l 182 928 b 400 976 254 958 348 976 b 578 886 508 976 578 954 b 468 793 578 842 553 816 l 338 758 b 138 587 154 709 138 674 z "},"³":{"ha":764,"x_min":0,"x_max":0,"o":"m 374 503 b 622 644 523 503 622 538 b 486 771 622 687 601 758 b 585 884 563 790 585 841 b 398 999 585 974 502 999 b 185 958 319 999 219 972 l 196 932 b 397 971 260 956 350 971 b 556 886 533 971 556 926 b 357 781 556 822 512 781 l 257 781 l 257 753 l 358 753 b 592 644 523 753 592 723 b 375 532 592 567 522 532 b 153 577 274 532 216 546 l 139 551 b 374 503 171 536 241 503 z "},"⁰":{"ha":764,"x_min":0,"x_max":0,"o":"m 123 758 b 382 512 123 575 255 512 b 641 758 509 512 641 579 b 382 1002 641 940 509 1002 b 123 758 255 1002 123 940 z m 154 758 b 382 973 154 917 265 973 b 610 758 499 973 610 917 b 382 541 610 599 499 541 b 154 758 265 541 154 599 z "},"⁴":{"ha":764,"x_min":0,"x_max":0,"o":"m 489 615 l 489 521 l 520 521 l 520 615 l 614 615 l 614 644 l 520 644 l 520 997 l 485 997 l 148 639 l 148 615 z m 192 644 l 489 958 l 489 644 z "},"⁵":{"ha":764,"x_min":0,"x_max":0,"o":"m 396 511 b 626 668 527 511 626 560 b 415 821 626 789 524 821 b 215 770 337 821 270 801 l 226 967 l 568 967 l 568 997 l 201 997 l 188 755 l 222 744 b 414 792 273 777 358 792 b 595 668 548 792 595 749 b 396 541 595 573 500 541 b 150 603 283 541 202 571 l 135 577 b 396 511 172 555 251 511 z "},"⁶":{"ha":764,"x_min":0,"x_max":0,"o":"m 376 510 b 636 680 555 510 636 591 b 428 840 636 787 533 840 b 156 702 332 840 219 790 b 153 747 153 717 153 733 b 414 976 153 885 244 976 b 557 954 467 976 518 968 l 566 981 b 416 1004 533 991 476 1004 b 124 742 231 1004 124 903 b 376 510 124 583 245 510 z m 165 666 b 429 812 210 749 332 812 b 608 680 531 812 608 763 b 377 538 608 583 498 538 b 165 666 310 538 198 565 z "},"⁷":{"ha":764,"x_min":0,"x_max":0,"o":"m 285 539 l 310 522 l 635 971 l 635 997 l 147 997 l 147 968 l 597 968 z "},"⁸":{"ha":764,"x_min":0,"x_max":0,"o":"m 141 641 b 382 507 141 549 246 507 b 623 641 518 507 623 549 b 463 767 623 717 535 765 b 592 877 531 772 592 815 b 382 1004 592 967 497 1004 b 172 877 267 1004 172 967 b 301 767 172 815 229 773 b 141 641 228 765 141 717 z m 171 641 b 382 753 171 717 273 753 b 593 641 491 753 593 717 b 381 534 593 571 520 534 b 171 641 244 534 171 571 z m 200 877 b 382 978 200 953 280 978 b 564 877 484 978 564 953 b 382 781 564 804 456 781 b 200 877 308 781 200 804 z "},"⁹":{"ha":764,"x_min":0,"x_max":0,"o":"m 352 509 b 622 777 525 509 622 605 b 382 1003 622 922 508 1003 b 145 832 265 1003 145 954 b 343 681 145 701 287 681 b 597 795 469 681 547 735 l 597 785 b 353 535 597 610 501 535 b 183 572 300 535 228 545 l 169 550 b 352 509 197 532 257 509 z m 172 833 b 383 976 172 922 260 976 b 592 828 470 976 567 928 b 343 708 540 762 466 708 b 172 833 290 708 172 727 z "},"⁽":{"ha":382,"x_min":0,"x_max":0,"o":"m 128 665 b 226 386 128 502 190 435 l 250 403 b 156 665 199 472 156 531 b 248 912 156 777 193 861 l 228 931 b 128 665 179 883 128 802 z "},"⁾":{"ha":382,"x_min":0,"x_max":0,"o":"m 133 403 l 156 386 b 254 665 192 435 254 502 b 154 931 254 802 203 883 l 135 910 b 226 665 190 860 226 777 b 133 403 226 531 184 471 z "},"⁺":{"ha":382,"x_min":0,"x_max":0,"o":"m 180 648 l 180 505 l 206 505 l 206 648 l 333 648 l 333 672 l 206 672 l 206 802 l 180 802 l 180 672 l 49 672 l 49 648 z "},"⁻":{"ha":382,"x_min":0,"x_max":0,"o":"m 49 674 l 49 650 l 333 650 l 333 674 z "},"⁼":{"ha":382,"x_min":0,"x_max":0,"o":"m 49 593 l 49 568 l 333 568 l 333 593 z m 49 696 l 333 696 l 333 721 l 49 721 z "},"ẞ":{"ha":2137,"x_min":0,"x_max":0,"o":"m 1208 87 l 1195 55 b 1599 -8 1271 28 1408 -8 b 2017 252 1853 -8 2017 58 b 1662 482 2017 442 1843 469 b 1256 666 1463 495 1256 492 b 1622 873 1256 798 1376 873 b 1944 822 1765 873 1887 842 l 1956 853 b 1622 904 1892 874 1769 904 b 1222 667 1362 904 1222 813 b 1639 449 1222 464 1437 461 b 1983 251 1816 438 1983 419 b 1600 24 1983 74 1811 24 b 1208 87 1424 24 1299 56 z m 126 55 b 530 -8 201 28 339 -8 b 948 252 783 -8 948 58 b 592 482 948 442 774 469 b 187 666 394 495 187 492 b 553 873 187 798 306 873 b 875 822 695 873 817 842 l 887 853 b 552 904 823 874 700 904 b 152 667 292 904 152 813 b 569 449 152 464 367 461 b 913 251 747 438 913 419 b 531 24 913 74 742 24 b 139 87 354 24 230 56 z "}," ":{"ha":694,"x_min":0,"x_max":0,"o":""}," ":{"ha":542,"x_min":0,"x_max":0,"o":""}," ":{"ha":1389,"x_min":0,"x_max":0,"o":""}}}
